<svg xmlns="http://www.w3.org/2000/svg" viewBox="0 0 27.58 55.25"><defs><style>.cls-1{opacity:0.35;isolation:isolate;}.cls-2{fill:#334561;}</style></defs><g id="Calque_2" data-name="Calque 2"><g id="Calque_1-2" data-name="Calque 1"><path d="M20.84,17.26h0l-.23,0,0,0Z"/><path d="M19.23,22.6l-.39.07Z"/><path d="M15.08,17.57l0,.09c-.28.55-.56,1.11-.83,1.67-.15.32-.31.65-.47,1-.43.91-.85,1.82-1.27,2.74s-.84,1.87-1.24,2.8-.79,1.84-1.17,2.76-.76,1.83-1.12,2.74-.75,1.88-1.11,2.81l-.24.63Q7.15,35.91,6.75,37"/><path d="M7.21,37.45s0,0,0-.06c.35-1,.7-1.9,1-2.81a.5.5,0,0,1,.05-.13c.34-.92.69-1.81,1-2.68s.76-1.92,1.13-2.84.78-1.89,1.17-2.79.8-1.86,1.18-2.74c.32-.71.63-1.4.94-2.07l.3-.66c.21-.43.41-.85.6-1.27s.36-.76.54-1.12l.18-.37,0-.06"/><path d="M18.74,22.69Z"/><path d="M18.21,25.29l-.62.11h0l.31,0Z"/><path class="cls-1" d="M18.21,25.29l-.62.11h0l.31,0Z"/><path d="M18.74,22.69h.1l.39-.08-.49.09Z"/><path class="cls-1" d="M18.74,22.69h.1l.39-.08-.49.09Z"/><path class="cls-2" d="M15.43,17.86l0,.05-.18.37c-.17.37-.36.74-.54,1.12s-.39.84-.6,1.27l-.3.67c-.31.66-.62,1.35-.94,2.07-.38.87-.78,1.78-1.18,2.73s-.77,1.83-1.17,2.79-.75,1.86-1.13,2.84-.69,1.76-1,2.68a.69.69,0,0,0-.05.13c-.35.91-.7,1.85-1,2.81a.14.14,0,0,1,0,.06h0l-.15.42c-.28.75-.55,1.51-.82,2.29l0,0c0,.11-.07.22-.11.33-.19.53-.35,1-.72,2.07A4.14,4.14,0,0,1,7,44.42a3.34,3.34,0,0,0-1.08-2.28c3,.14,5.56-.62,6.89-2.8a4,4,0,0,0,.32-.62,2.84,2.84,0,0,1-2.76,1,8,8,0,0,0,4-3.29c.22-.35.43-.74.65-1.16a6.53,6.53,0,0,1-6.14,2h0l-.1,0a11.82,11.82,0,0,0,6.34-3.56,16.14,16.14,0,0,0,2.16-3,26.9,26.9,0,0,0,1.39-2.89q.57-1.39,1.11-3a6.36,6.36,0,0,1-1.56.54l-.31.06-.31.05h0a7.25,7.25,0,0,0,3.87-3.77,6.67,6.67,0,0,1-2.23,1l-.39.07h-.1a7.27,7.27,0,0,0,1.66-.93l.29-.23c.14-.13.28-.26.41-.4a1.55,1.55,0,0,0,.24-.27,5.4,5.4,0,0,0,.52-.71l.15-.24.18-.35c.26-.52.46-1,.63-1.39L23,17.6c0-.07,0-.14.07-.2s.12-.37.16-.53a4,4,0,0,0,.13-.54l-.22.15a7.91,7.91,0,0,1-2.29.78h0l-.23,0,0,0"/><path class="cls-2" d="M17.87,12.37c.51-.88,1-1.74,1.55-2.57l.09-.15c.52-.81,1-1.6,1.56-2.35h0a38.38,38.38,0,0,1,3.37-4.23,35.66,35.66,0,0,0-3.16,4.29,58.67,58.67,0,0,0,6.13-.76c.61-3.38-.59-4.93-.59-4.93S25.3-.79,23.52.26a20.13,20.13,0,0,0-4,4.06h0l-.36.44c-.45.57-.93,1.18-1.41,1.83S16.61,8.1,16,8.91s-1.06,1.55-1.6,2.37-.91,1.41-1.36,2.15l-.05.08h0l-.1.17c-.48.78-1,1.58-1.43,2.39s-.93,1.67-1.39,2.52S9.35,20,9,20.77c-.07.15-.14.29-.22.44-.44.92-.85,1.81-1.21,2.67s-.78,1.9-1.1,2.77c-.21.58-.4,1.14-.58,1.68s-.28.91-.41,1.37c-.31,1.08-.57,2.15-.79,3.22h0s0,.09,0,.14A31.22,31.22,0,0,0,4.12,37s0,.09,0,.13a8.22,8.22,0,0,0-2.37-2,11.46,11.46,0,0,1,2.32,5.32,5.25,5.25,0,0,1-2.62-.45,5.37,5.37,0,0,0,2.23,1.36,6.4,6.4,0,0,0-3.1,1.54,6.51,6.51,0,0,1,3.67-.67c-1.41,4-2.82,8.41-4.24,13.09a1.26,1.26,0,0,0,.84-.81c.25-.85,1.92-6.42,4.55-13.73l.22-.63a1.34,1.34,0,0,0,.07-.18c.28-.76.56-1.55.86-2.35.07-.18.14-.36.2-.54h0c.27-.72.55-1.46.84-2.21l.24-.63c.36-.93.73-1.87,1.11-2.81s.74-1.82,1.12-2.74.77-1.84,1.17-2.76S12.05,24,12.47,23s.84-1.83,1.27-2.74c.16-.33.32-.65.47-1,.27-.57.55-1.12.83-1.67l0-.09h0c.44-.87.89-1.73,1.34-2.57S17.38,13.23,17.87,12.37Z"/><path class="cls-2" d="M19.76,9.8l-.09.14c-.47.8-1,1.67-1.49,2.62s-.93,1.71-1.42,2.66-.87,1.71-1.33,2.64l5.22-.58A6.38,6.38,0,0,0,23.51,15l.53-.79c.53-.84,1.06-1.76,1.53-2.68S26.42,9.81,26.73,9a12.36,12.36,0,0,0,.46-1.38c.1-.37.17-.71.23-1a58.51,58.51,0,0,1-6.14.76C20.81,8.07,20.31,8.88,19.76,9.8Z"/><path d="M17.9,25.35l-.31,0h0Z"/><path class="cls-1" d="M17.9,25.35l-.31,0h0Z"/><path d="M17.9,25.35l-.31,0h0Z"/><path d="M18.74,22.69h0Z"/><path class="cls-1" d="M18.74,22.69h0Z"/><path d="M18.74,22.69h0Z"/><path d="M18.74,22.69Z"/><path class="cls-1" d="M18.74,22.69Z"/><path d="M18.74,22.69Z"/></g></g></svg>