<svg xmlns="http://www.w3.org/2000/svg" viewBox="0 0 46.28 55.98"><defs><style>.cls-1{fill:#fff;}.cls-2{fill:#ff9442;}</style></defs><g id="Calque_2" data-name="Calque 2"><g id="Calque_1-2" data-name="Calque 1"><path d="M41.76,39a3.39,3.39,0,0,1,2,2.87,5.6,5.6,0,0,0,1.41,3A4.93,4.93,0,0,1,46,46.21,2.06,2.06,0,0,1,45.3,49a14.35,14.35,0,0,1-1.9,1.09,12.88,12.88,0,0,0-4.66,3.3,7,7,0,0,1-2.71,2,5,5,0,0,1-4.69,0,4.52,4.52,0,0,1-2.11-2.59c-1.82-.2-3.58-.51-5.35-.53a35.27,35.27,0,0,0-4.2.47,3.49,3.49,0,0,0-2.61,1.34c-1,1.28-2.65,1.43-4.2,1.2a10.67,10.67,0,0,1-3.24-.93A16,16,0,0,0,4.14,53a14.38,14.38,0,0,1-1.86-.28C.39,52.25-.29,51.15.11,49.25a3.46,3.46,0,0,1,.19-.7,4.39,4.39,0,0,0,.15-2.68c0-.32-.11-.65-.14-1a2.82,2.82,0,0,1,1.94-3.31A6.49,6.49,0,0,0,5.67,39a2.63,2.63,0,0,0,.51-1.79,14.67,14.67,0,0,1,1.48-6.63,36.23,36.23,0,0,1,5.16-8.17,12.58,12.58,0,0,0,2.85-9.11,29.1,29.1,0,0,1,.06-6.79A7.22,7.22,0,0,1,22.55.1a11.78,11.78,0,0,1,4.06.16C29.51,1,31.06,3,31.86,5.7a20,20,0,0,1,.68,5.22c0,1,0,2,0,3a8.84,8.84,0,0,0,1.74,5.65c1.11,1.54,2.32,3,3.47,4.53A25.27,25.27,0,0,1,41.16,30,13.06,13.06,0,0,1,41.76,39ZM13,25.69l-.11-.05a.16.16,0,0,0-.09.05,21.68,21.68,0,0,0-2.89,6.18c-.85,3.38.15,5.9,3,7.65a22.41,22.41,0,0,1,3.36,2.73,4.38,4.38,0,0,1,1.33,2.34,1.42,1.42,0,0,1-1.08,1.76c-.24.06-.48.1-.77.16.33.43.65.81.92,1.21a3.41,3.41,0,0,0,1.48,1.43,18.36,18.36,0,0,0,2.44.9A11.39,11.39,0,0,0,29.73,48a.54.54,0,0,0,.21-.28A24.73,24.73,0,0,0,30.58,45c.2-1.41.22-2.85.44-4.27a4.07,4.07,0,0,1,2.23-3.39c.13-.06.21-.29.25-.46a1.73,1.73,0,0,1,2.06-1.53,7.69,7.69,0,0,1,3.31,1.23c.79.48,1.47,1,1.24,2.13.48,0,.5,0,.54-.35a1.89,1.89,0,0,0-.78-1.84,21.76,21.76,0,0,0-2.25-1.41.54.54,0,0,1-.33-.64,13.8,13.8,0,0,0,0-2.65A12.6,12.6,0,0,0,33.68,25a5.32,5.32,0,0,0-.45-.38l-.16.13a3.24,3.24,0,0,0,.4.57,10.63,10.63,0,0,1,2.9,5.41,6.54,6.54,0,0,1-.27,3.86,2.67,2.67,0,0,0-.59-.08c-.48.05-.6-.2-.69-.62a21,21,0,0,0-2-5.54,59.15,59.15,0,0,1-3.69-8.54c-.31-.92-.58-1.84-.88-2.78-.32.28-.58.56-.89.78a9.62,9.62,0,0,1-1,.59c-.65.34-1.33.63-1.94,1-1.79,1.1-3.79,1.33-5.57-.49a10.35,10.35,0,0,0-1.4-1c-.14.81-.22,1.5-.37,2.18a36.59,36.59,0,0,1-2.8,7.59A26.07,26.07,0,0,0,12,33.83c-.17,1-.28,1.91-.43,2.92a1.59,1.59,0,0,1-.12-.16c-.08-.14-.17-.27-.24-.41A6.47,6.47,0,0,1,10.74,31c.48-1.48,1.2-2.89,1.81-4.33C12.69,26.34,12.83,26,13,25.69ZM17.6,51.34a8.47,8.47,0,0,0-.51-1.57,19.56,19.56,0,0,0-1.39-2.14c-.86-1.21-1.82-2.35-2.62-3.59S11.7,41.53,11,40.29a4.19,4.19,0,0,0-1.72-1.72A2.06,2.06,0,0,0,6.62,39c-.39.44-.74.92-1.09,1.4a3.84,3.84,0,0,1-2,1.49c-.27.08-.53.18-.79.28A2.12,2.12,0,0,0,1.1,44.68c0,.35.07.69.12,1A5.31,5.31,0,0,1,1,48.8a4.35,4.35,0,0,0-.18.71C.59,51,1,51.61,2.45,51.92a18.11,18.11,0,0,0,2.07.3A14.52,14.52,0,0,1,9.6,53.54a8.24,8.24,0,0,0,5,1A3.28,3.28,0,0,0,17.6,51.34ZM33.28,38.22a2.25,2.25,0,0,0-1.2,1.5,22,22,0,0,0-.53,2.66c-.22,1.46-.31,2.94-.58,4.4s-.78,2.93-1,4.42a3.53,3.53,0,0,0,4,4,6.77,6.77,0,0,0,4.24-2.39,13.08,13.08,0,0,1,4.5-3.26,16.69,16.69,0,0,0,2.14-1.2,1.28,1.28,0,0,0,.45-1.8,6.87,6.87,0,0,0-1-1.48,5.24,5.24,0,0,1-1.22-2.5,9.33,9.33,0,0,0-.54-1.8A2.25,2.25,0,0,0,39.19,40,8.82,8.82,0,0,1,37,41.24a2.29,2.29,0,0,1-3.08-1.3A14.38,14.38,0,0,1,33.28,38.22ZM21.83,12.14l0,.15a3,3,0,0,0-2.14.68c-.88.66-1.73,1.35-2.57,2a1,1,0,0,0-.31,1.4,4.94,4.94,0,0,0,1,1.17,22.76,22.76,0,0,0,1.9,1.46,4.27,4.27,0,0,0,1.24.63,3.89,3.89,0,0,0,3-.56c.75-.42,1.56-.76,2.3-1.21a6.73,6.73,0,0,0,1.61-1.28,1.36,1.36,0,0,0-.49-2.2,10.13,10.13,0,0,0-.95-.42c-.82-.37-1.64-.77-2.47-1.11S22.55,12.39,21.83,12.14Zm5.54,1.78a4.24,4.24,0,0,0-.3-5.54,2.32,2.32,0,0,0-3.38.13,3.94,3.94,0,0,0-1,3.18.44.44,0,0,0,.23.3c.38.15.78.26,1.13.36a11.94,11.94,0,0,1,.37-1.62,1,1,0,0,1,1.05-.8,1.1,1.1,0,0,1,1,.85,2.36,2.36,0,0,1-.41,2.6Zm-9-.44a2.42,2.42,0,0,1-.61-2.1c.08-.44.16-1,.74-1s.75.46.88.89a8.64,8.64,0,0,1,.21,1.15,8.16,8.16,0,0,0,.84-.37.5.5,0,0,0,.23-.34A3.9,3.9,0,0,0,20,9.13a1.59,1.59,0,0,0-2.92.21,4.26,4.26,0,0,0-.3,3A3.17,3.17,0,0,0,17.68,14Z"/><path class="cls-1" d="M13,25.79l-.43,1c-.61,1.44-1.33,2.84-1.81,4.33a6.48,6.48,0,0,0,.42,5.18c.07.14.16.27.24.4a.91.91,0,0,0,.12.17c.15-1,.26-2,.43-2.92a26.51,26.51,0,0,1,2.3-6.21,36.89,36.89,0,0,0,2.8-7.6c.15-.67.23-1.36.37-2.17a11.24,11.24,0,0,1,1.4,1c1.78,1.82,3.78,1.6,5.57.49.61-.38,1.29-.67,1.94-1a9.69,9.69,0,0,0,1-.6,10.13,10.13,0,0,0,.89-.78c.3.94.57,1.87.89,2.78a58,58,0,0,0,3.68,8.54,21,21,0,0,1,2,5.55c.09.42.21.67.69.62a2.19,2.19,0,0,1,.59.08,6.54,6.54,0,0,0,.27-3.86,10.59,10.59,0,0,0-2.9-5.41,3.32,3.32,0,0,1-.4-.58l.16-.13c.15.13.31.24.45.38A12.6,12.6,0,0,1,37.29,32a13.91,13.91,0,0,1,0,2.66.56.56,0,0,0,.33.64,21.76,21.76,0,0,1,2.25,1.41,1.86,1.86,0,0,1,.78,1.84c0,.37-.06.38-.54.34.23-1.07-.45-1.65-1.24-2.12a7.84,7.84,0,0,0-3.31-1.24A1.74,1.74,0,0,0,33.5,37c0,.17-.12.41-.25.47A4.05,4.05,0,0,0,31,40.87c-.22,1.41-.24,2.85-.44,4.26a24.33,24.33,0,0,1-.64,2.65.56.56,0,0,1-.21.28,11.42,11.42,0,0,1-9.11,2.09,15.93,15.93,0,0,1-2.44-.9,3.33,3.33,0,0,1-1.48-1.42c-.27-.4-.59-.78-.92-1.21.29-.06.53-.1.77-.17a1.41,1.41,0,0,0,1.08-1.76,4.31,4.31,0,0,0-1.33-2.33,21.88,21.88,0,0,0-3.36-2.74C10,37.87,9,35.36,9.89,32a21.81,21.81,0,0,1,2.89-6.18l.09-.05Z"/><path class="cls-2" d="M17.6,51.45a3.29,3.29,0,0,1-3,3.18,8.25,8.25,0,0,1-5-1,14.29,14.29,0,0,0-5.08-1.31c-.69-.08-1.39-.16-2.07-.3C1,51.72.59,51.06.86,49.62A4.1,4.1,0,0,1,1,48.91a5.34,5.34,0,0,0,.18-3.09c-.05-.34-.1-.69-.12-1A2.13,2.13,0,0,1,2.71,42.3c.26-.1.52-.2.79-.28a3.82,3.82,0,0,0,2-1.48c.35-.48.7-1,1.09-1.41a2.07,2.07,0,0,1,2.66-.45A4.17,4.17,0,0,1,11,40.39c.7,1.25,1.31,2.55,2.08,3.75s1.76,2.39,2.62,3.59a19.68,19.68,0,0,1,1.39,2.15A8.24,8.24,0,0,1,17.6,51.45Z"/><path class="cls-2" d="M33.28,38.33a15,15,0,0,0,.61,1.72A2.28,2.28,0,0,0,37,41.34a8.78,8.78,0,0,0,2.22-1.23,2.24,2.24,0,0,1,3.39.75,9,9,0,0,1,.54,1.79,5.32,5.32,0,0,0,1.22,2.51,6.41,6.41,0,0,1,1,1.48,1.27,1.27,0,0,1-.45,1.79,16.69,16.69,0,0,1-2.14,1.2,13.08,13.08,0,0,0-4.5,3.26A6.68,6.68,0,0,1,34,55.28a3.53,3.53,0,0,1-4-4c.25-1.49.76-2.93,1-4.42s.36-2.93.58-4.39a21.58,21.58,0,0,1,.53-2.66A2.25,2.25,0,0,1,33.28,38.33Z"/><path class="cls-2" d="M21.83,12.24c.72.25,1.44.48,2.14.77s1.65.73,2.47,1.1c.32.15.65.26.95.43a1.35,1.35,0,0,1,.49,2.19A6.49,6.49,0,0,1,26.27,18c-.74.46-1.55.79-2.3,1.22a3.89,3.89,0,0,1-3,.56,4.3,4.3,0,0,1-1.24-.64,19.16,19.16,0,0,1-1.9-1.46,4.7,4.7,0,0,1-1-1.16,1,1,0,0,1,.31-1.4c.84-.7,1.69-1.39,2.57-2.06a3.07,3.07,0,0,1,2.15-.68Zm-.36,6.13c.1,0,.3,0,.49-.05a9.88,9.88,0,0,0,4-1.84,6.21,6.21,0,0,0,.9-.8c.08-.08.06-.27.09-.41-.15,0-.35,0-.45.12a9.65,9.65,0,0,1-3.45,2.2c-2,.81-3.77.16-5.33-1.65a1.66,1.66,0,0,0-.43-.27c0,.19-.05.45.05.56A5.74,5.74,0,0,0,21.47,18.37Zm.85-5.08v.18a2.81,2.81,0,0,0,.39.19,4.25,4.25,0,0,0,.61.08.39.39,0,0,0,.06-.21,1.57,1.57,0,0,0-.56-.32A1.31,1.31,0,0,0,22.32,13.29Zm-1.15.13a.73.73,0,0,0-1-.07c-.09.05-.12.21-.17.33.13,0,.29.15.4.12A5.3,5.3,0,0,0,21.17,13.42Z"/><path class="cls-1" d="M27.37,14,26,13.49a2.36,2.36,0,0,0,.41-2.6,1.08,1.08,0,0,0-1-.85,1,1,0,0,0-1.05.79A11.75,11.75,0,0,0,24,12.46c-.35-.11-.75-.22-1.13-.37a.4.4,0,0,1-.23-.29,4,4,0,0,1,1-3.19,2.32,2.32,0,0,1,3.38-.13A4.25,4.25,0,0,1,27.37,14Z"/><path class="cls-1" d="M18.4,13.59l-.72.54a3.11,3.11,0,0,1-.91-1.68,4.3,4.3,0,0,1,.3-3A1.6,1.6,0,0,1,20,9.23a4,4,0,0,1,.69,2.58.5.5,0,0,1-.23.34c-.26.14-.54.24-.84.37a8.36,8.36,0,0,0-.21-1.15c-.13-.44-.31-.93-.88-.89s-.66.56-.74,1A2.42,2.42,0,0,0,18.4,13.59Z"/><path d="M21.47,18.37a5.74,5.74,0,0,1-4.13-2.14c-.1-.11,0-.37-.05-.56a1.66,1.66,0,0,1,.43.27c1.56,1.81,3.33,2.46,5.33,1.65a9.65,9.65,0,0,0,3.45-2.2c.1-.1.3-.09.45-.12,0,.14,0,.33-.09.41a6.21,6.21,0,0,1-.9.8,9.88,9.88,0,0,1-4,1.84C21.77,18.35,21.57,18.36,21.47,18.37Z"/><path d="M22.32,13.29a1.31,1.31,0,0,1,.5-.08,1.57,1.57,0,0,1,.56.32.39.39,0,0,1-.06.21,4.25,4.25,0,0,1-.61-.08,2.81,2.81,0,0,1-.39-.19Z"/><path d="M21.17,13.42a5.3,5.3,0,0,1-.75.38c-.11,0-.27-.08-.4-.12.05-.12.08-.28.17-.33A.73.73,0,0,1,21.17,13.42Z"/></g></g></svg>