<svg xmlns="http://www.w3.org/2000/svg" viewBox="0 0 46.51 56.27"><defs><style>.cls-1{fill:#334561;}.cls-2{fill:#fff;}</style></defs><g id="Calque_2" data-name="Calque 2"><g id="Calque_1-2" data-name="Calque 1"><path class="cls-1" d="M42,39.21a3.4,3.4,0,0,1,2,2.89,5.79,5.79,0,0,0,1.4,3,4.74,4.74,0,0,1,.86,1.37,2.07,2.07,0,0,1-.73,2.78,13,13,0,0,1-1.91,1.1,12.78,12.78,0,0,0-4.69,3.31,7.2,7.2,0,0,1-2.73,2,5.06,5.06,0,0,1-4.71,0,4.49,4.49,0,0,1-2.11-2.61c-1.83-.2-3.6-.51-5.38-.54a35.84,35.84,0,0,0-4.22.47,3.47,3.47,0,0,0-2.62,1.34c-1,1.29-2.67,1.43-4.22,1.2a10.93,10.93,0,0,1-3.26-.94,16.15,16.15,0,0,0-5.52-1.43,15.11,15.11,0,0,1-1.87-.29C.39,52.46-.3,51.36.12,49.45a3.38,3.38,0,0,1,.19-.71,4.42,4.42,0,0,0,.15-2.69c-.05-.32-.11-.65-.14-1a2.82,2.82,0,0,1,2-3.32,6.41,6.41,0,0,0,3.43-2.59,2.65,2.65,0,0,0,.53-1.79A14.78,14.78,0,0,1,7.73,30.7a36.49,36.49,0,0,1,5.2-8.2,12.61,12.61,0,0,0,2.88-9.15,28.82,28.82,0,0,1,.08-6.82A7.24,7.24,0,0,1,22.75.1a12.16,12.16,0,0,1,4.08.16C29.74,1,31.29,3,32.09,5.74A19.8,19.8,0,0,1,32.77,11c0,1,0,2,0,3a9,9,0,0,0,1.73,5.68c1.12,1.56,2.34,3,3.49,4.56a25.72,25.72,0,0,1,3.41,5.85A13.17,13.17,0,0,1,42,39.21ZM13.08,25.79,13,25.74s-.07,0-.08.05A21.93,21.93,0,0,0,10,32c-.86,3.4.14,5.92,3.06,7.69a22.44,22.44,0,0,1,3.36,2.75,4.48,4.48,0,0,1,1.34,2.35,1.44,1.44,0,0,1-1.09,1.77c-.24.06-.49.1-.77.16.33.44.64.82.92,1.22a3.35,3.35,0,0,0,1.48,1.43,16.1,16.1,0,0,0,2.45.91,11.42,11.42,0,0,0,9.16-2.09.54.54,0,0,0,.21-.28,22.22,22.22,0,0,0,.64-2.65c.21-1.42.24-2.87.46-4.29a4.05,4.05,0,0,1,2.25-3.4.73.73,0,0,0,.24-.47,1.75,1.75,0,0,1,2.08-1.53,7.75,7.75,0,0,1,3.32,1.24c.8.48,1.48,1.06,1.24,2.14.49,0,.51,0,.55-.34a1.92,1.92,0,0,0-.78-1.85,21.36,21.36,0,0,0-2.26-1.42.56.56,0,0,1-.33-.65,14.89,14.89,0,0,0,0-2.67,12.76,12.76,0,0,0-3.62-6.92,5.46,5.46,0,0,0-.45-.39l-.17.13a3.5,3.5,0,0,0,.4.58,10.62,10.62,0,0,1,2.91,5.44,6.53,6.53,0,0,1-.28,3.88,2.67,2.67,0,0,0-.59-.08c-.48.05-.6-.2-.69-.62a21.24,21.24,0,0,0-2-5.58,59.74,59.74,0,0,1-3.69-8.59C29,19,28.75,18,28.45,17.08a10.35,10.35,0,0,1-.89.78,8.31,8.31,0,0,1-1,.59c-.65.34-1.33.63-2,1-1.8,1.11-3.81,1.33-5.6-.5a9.75,9.75,0,0,0-1.4-1c-.14.81-.23,1.5-.37,2.18a37,37,0,0,1-2.83,7.63A26.19,26.19,0,0,0,12,34c-.18,1-.29,1.91-.44,2.93a.91.91,0,0,1-.12-.17c-.08-.13-.17-.27-.24-.41a6.44,6.44,0,0,1-.41-5.2c.48-1.49,1.2-2.9,1.82-4.35Zm4.61,25.79A10.06,10.06,0,0,0,17.18,50a21.52,21.52,0,0,0-1.4-2.16c-.86-1.21-1.82-2.36-2.62-3.61s-1.39-2.52-2.09-3.77a4.28,4.28,0,0,0-1.72-1.73,2.08,2.08,0,0,0-2.68.46,15.2,15.2,0,0,0-1.1,1.41,3.85,3.85,0,0,1-2,1.48c-.27.08-.53.18-.79.28a2.15,2.15,0,0,0-1.63,2.49,9.41,9.41,0,0,0,.13,1A5.47,5.47,0,0,1,1.05,49a2.85,2.85,0,0,0-.18.71c-.28,1.45.14,2.11,1.59,2.43.68.14,1.38.22,2.08.3a14.42,14.42,0,0,1,5.1,1.33,8.33,8.33,0,0,0,5,1A3.31,3.31,0,0,0,17.69,51.58ZM33.47,38.42a2.3,2.3,0,0,0-1.22,1.51,23.81,23.81,0,0,0-.54,2.67c-.21,1.47-.31,3-.59,4.41s-.78,3-1,4.44a3.55,3.55,0,0,0,4.06,4,6.77,6.77,0,0,0,4.26-2.39,13.14,13.14,0,0,1,4.52-3.27,15.66,15.66,0,0,0,2.16-1.2,1.28,1.28,0,0,0,.45-1.8,6.47,6.47,0,0,0-1-1.49,5.4,5.4,0,0,1-1.22-2.52A8.59,8.59,0,0,0,42.8,41a2.26,2.26,0,0,0-3.41-.76,8.71,8.71,0,0,1-2.23,1.24,2.29,2.29,0,0,1-3.09-1.31A14.57,14.57,0,0,1,33.47,38.42ZM22,12.19l-.05.15A3.09,3.09,0,0,0,19.8,13c-.88.67-1.74,1.36-2.59,2.06a1,1,0,0,0-.31,1.41,4.94,4.94,0,0,0,1,1.17,20.64,20.64,0,0,0,1.91,1.47,4.23,4.23,0,0,0,1.25.64,3.87,3.87,0,0,0,3.06-.55c.76-.43,1.57-.77,2.31-1.22a6.63,6.63,0,0,0,1.63-1.29,1.36,1.36,0,0,0-.49-2.2c-.31-.17-.64-.28-1-.43-.83-.37-1.64-.77-2.48-1.12S22.72,12.45,22,12.19ZM27.56,14a4.28,4.28,0,0,0-.28-5.58,2.34,2.34,0,0,0-3.4.13,4,4,0,0,0-1,3.2.4.4,0,0,0,.23.29c.38.15.79.26,1.13.37a15.57,15.57,0,0,1,.37-1.63,1.06,1.06,0,0,1,1.06-.8,1.11,1.11,0,0,1,1,.86,2.38,2.38,0,0,1-.42,2.61Zm-9-.47a2.44,2.44,0,0,1-.62-2.11c.08-.44.17-1,.75-1s.75.46.89.9a8.63,8.63,0,0,1,.2,1.15c.3-.13.59-.22.85-.36a.55.55,0,0,0,.23-.35,4,4,0,0,0-.69-2.59,1.61,1.61,0,0,0-2.94.21,4.32,4.32,0,0,0-.3,3,3.13,3.13,0,0,0,.91,1.69Z"/><path class="cls-2" d="M13.08,25.79l-.43,1c-.62,1.45-1.34,2.86-1.82,4.35a6.44,6.44,0,0,0,.41,5.2c.07.14.16.28.24.41a.91.91,0,0,0,.12.17c.15-1,.26-2,.44-2.93a26.19,26.19,0,0,1,2.32-6.24,37,37,0,0,0,2.83-7.63c.14-.68.23-1.37.37-2.18A9.75,9.75,0,0,1,19,19c1.79,1.83,3.8,1.61,5.6.5.62-.38,1.3-.67,2-1a8.31,8.31,0,0,0,1-.59,10.35,10.35,0,0,0,.89-.78c.3.94.58,1.87.89,2.79A59.74,59.74,0,0,0,33,28.46,21.24,21.24,0,0,1,35,34c.09.42.21.67.69.62a2.67,2.67,0,0,1,.59.08,6.53,6.53,0,0,0,.28-3.88,10.62,10.62,0,0,0-2.91-5.44,3.5,3.5,0,0,1-.4-.58l.17-.13a5.46,5.46,0,0,1,.45.39A12.76,12.76,0,0,1,37.51,32a14.89,14.89,0,0,1,0,2.67.56.56,0,0,0,.33.65,21.36,21.36,0,0,1,2.26,1.42,1.92,1.92,0,0,1,.78,1.85c0,.37-.06.38-.55.34.24-1.08-.44-1.66-1.24-2.14a7.75,7.75,0,0,0-3.32-1.24,1.75,1.75,0,0,0-2.08,1.53.73.73,0,0,1-.24.47A4.05,4.05,0,0,0,31.19,41c-.22,1.42-.25,2.87-.46,4.29a22.22,22.22,0,0,1-.64,2.65.54.54,0,0,1-.21.28,11.42,11.42,0,0,1-9.16,2.09,16.1,16.1,0,0,1-2.45-.91,3.35,3.35,0,0,1-1.48-1.43c-.28-.4-.59-.78-.92-1.22.28-.06.53-.1.77-.16a1.44,1.44,0,0,0,1.09-1.77,4.48,4.48,0,0,0-1.34-2.35A22.44,22.44,0,0,0,13,39.69C10.11,37.92,9.11,35.4,10,32a21.93,21.93,0,0,1,2.92-6.21s0,0,.08-.05Z"/><path class="cls-2" d="M17.69,51.58a3.31,3.31,0,0,1-3,3.19,8.33,8.33,0,0,1-5-1,14.42,14.42,0,0,0-5.1-1.33c-.7-.08-1.4-.16-2.08-.3C1,51.82.59,51.16.87,49.71A2.85,2.85,0,0,1,1.05,49a5.47,5.47,0,0,0,.19-3.1,9.41,9.41,0,0,1-.13-1,2.15,2.15,0,0,1,1.63-2.49c.26-.1.52-.2.79-.28a3.85,3.85,0,0,0,2-1.48,15.2,15.2,0,0,1,1.1-1.41,2.08,2.08,0,0,1,2.68-.46,4.28,4.28,0,0,1,1.72,1.73c.7,1.25,1.32,2.56,2.09,3.77s1.76,2.4,2.62,3.61A21.52,21.52,0,0,1,17.18,50,10.06,10.06,0,0,1,17.69,51.58Z"/><path class="cls-2" d="M33.47,38.42a14.57,14.57,0,0,0,.6,1.73,2.29,2.29,0,0,0,3.09,1.31,8.71,8.71,0,0,0,2.23-1.24A2.26,2.26,0,0,1,42.8,41a8.59,8.59,0,0,1,.54,1.81,5.4,5.4,0,0,0,1.22,2.52,6.47,6.47,0,0,1,1,1.49,1.28,1.28,0,0,1-.45,1.8,15.66,15.66,0,0,1-2.16,1.2,13.14,13.14,0,0,0-4.52,3.27,6.77,6.77,0,0,1-4.26,2.39,3.55,3.55,0,0,1-4.06-4c.26-1.49.77-2.94,1-4.44s.38-2.94.59-4.41a23.81,23.81,0,0,1,.54-2.67A2.3,2.3,0,0,1,33.47,38.42Z"/><path class="cls-2" d="M22,12.19c.71.26,1.44.48,2.14.77s1.65.75,2.48,1.12c.32.15.65.26,1,.43a1.36,1.36,0,0,1,.49,2.2A6.63,6.63,0,0,1,26.45,18c-.74.45-1.55.79-2.31,1.22a3.87,3.87,0,0,1-3.06.55,4.23,4.23,0,0,1-1.25-.64,20.64,20.64,0,0,1-1.91-1.47,4.94,4.94,0,0,1-1-1.17,1,1,0,0,1,.31-1.41c.85-.7,1.71-1.39,2.59-2.06A3.09,3.09,0,0,1,22,12.34Zm-.38,6.16c.11,0,.3,0,.49-.05a10.2,10.2,0,0,0,4-1.84,8.57,8.57,0,0,0,.9-.8c.08-.09.06-.28.09-.42-.15,0-.35,0-.45.12a9.75,9.75,0,0,1-3.47,2.21c-2,.81-3.79.15-5.35-1.67a1.92,1.92,0,0,0-.44-.27c0,.19-.05.45.05.56A5.81,5.81,0,0,0,21.63,18.35Zm.87-5.11v.18a2.14,2.14,0,0,0,.4.2,4.25,4.25,0,0,0,.61.08.39.39,0,0,0,.06-.21,1.76,1.76,0,0,0-.56-.32A1.29,1.29,0,0,0,22.5,13.24Zm-1.16.13a.75.75,0,0,0-1-.07c-.09,0-.12.22-.17.33.13,0,.29.16.4.12A4.86,4.86,0,0,0,21.34,13.37Z"/><path class="cls-2" d="M27.56,14l-1.37-.55a2.38,2.38,0,0,0,.42-2.61,1.11,1.11,0,0,0-1-.86,1.06,1.06,0,0,0-1.06.8,15.57,15.57,0,0,0-.37,1.63c-.34-.11-.75-.22-1.13-.37a.4.4,0,0,1-.23-.29,4,4,0,0,1,1-3.2,2.34,2.34,0,0,1,3.4-.13A4.28,4.28,0,0,1,27.56,14Z"/><path class="cls-2" d="M18.55,13.53l-.72.55a3.13,3.13,0,0,1-.91-1.69,4.32,4.32,0,0,1,.3-3,1.61,1.61,0,0,1,2.94-.21,4,4,0,0,1,.69,2.59.55.55,0,0,1-.23.35c-.26.14-.55.23-.85.36a8.63,8.63,0,0,0-.2-1.15c-.14-.44-.32-.93-.89-.9s-.67.57-.75,1A2.44,2.44,0,0,0,18.55,13.53Z"/><path class="cls-1" d="M21.63,18.35a5.81,5.81,0,0,1-4.15-2.16c-.1-.11,0-.37-.05-.56a1.92,1.92,0,0,1,.44.27c1.56,1.82,3.33,2.48,5.35,1.67a9.75,9.75,0,0,0,3.47-2.21c.1-.1.3-.08.45-.12,0,.14,0,.33-.09.42a8.57,8.57,0,0,1-.9.8,10.2,10.2,0,0,1-4,1.84C21.93,18.33,21.74,18.34,21.63,18.35Z"/><path class="cls-1" d="M22.5,13.24a1.29,1.29,0,0,1,.5-.07,1.76,1.76,0,0,1,.56.32.39.39,0,0,1-.06.21,4.25,4.25,0,0,1-.61-.08,2.14,2.14,0,0,1-.4-.2Z"/><path class="cls-1" d="M21.34,13.37a4.86,4.86,0,0,1-.76.38c-.11,0-.27-.08-.4-.12.05-.11.08-.28.17-.33A.75.75,0,0,1,21.34,13.37Z"/></g></g></svg>