<svg xmlns="http://www.w3.org/2000/svg" viewBox="0 0 46.07 47.72"><defs><style>.cls-1{fill:#334561;}</style></defs><g id="Calque_2" data-name="Calque 2"><g id="Calque_1-2" data-name="Calque 1"><g id="y1QceC.tif"><path class="cls-1" d="M43.43,13.14c-1.16-3.12-3.49-5.32-6-7.34a21.91,21.91,0,0,0-16.57-5C20.21.9,19,.65,19.22,2.08s1.19.93,1.94.9A23,23,0,0,1,31,4.45,22.66,22.66,0,0,1,41.8,14c.08.59-.28.86-.76,1.06-2.88,1.15-5.75,2.29-8.61,3.48a1.46,1.46,0,0,1-1.83-.44c-1.66-5.38-5.14-9.42-9.53-12.74-.38-.29-1-1-1.48,0-.27.66-.57,1.26.32,1.77a18.11,18.11,0,0,1,5.23,5.05c1.63,2.11,2.63,4.59,4.06,6.82.12,1.13-.88,1.13-1.51,1.39-3.16,1.3-6.41,2.4-9.49,3.86-1.77.84-2.92.88-3.72-1.06.42-1.16-.43-2.09-.6-3.15-.56-3.49-1.12-7-.24-10.52a1.28,1.28,0,0,0-1-1.72c-1.16-.28-1,.77-1.07,1.33a24.58,24.58,0,0,0,1.3,14.06c.55,3.13.55,3.12-2.26,4.17-2,.75-4.05,1.44-6,2.38s-2.33.2-2.25-1.53c0-1.95-.16-3.92,0-5.86A21.34,21.34,0,0,1,10.26,6.91a2.61,2.61,0,0,1,3.35-.48A3.26,3.26,0,0,0,18,4.7,3.4,3.4,0,0,0,16.66.48c-1.38-.87-3.87-.58-4.39,1-.76,2.26-2.7,3-4.16,4.43C1.67,12-1,19.42.32,28.22c.41,1.4.75,2.83,1.25,4.2,3.46,9.43,14,15.82,24,14.5.61-.08,1.74.26,1.69-.93s-.93-1.56-2.07-1.24a3.92,3.92,0,0,1-.84.08A20.83,20.83,0,0,1,4.51,34c-.72-1.3-.58-1.93.88-2.43a47.67,47.67,0,0,0,6.78-2.76c1.87-1,2.51-.35,3.28,1.28a30.16,30.16,0,0,0,9.94,12.44c.43.3,1,1.35,1.64.21.36-.68.84-1.33-.23-2.09-4.33-3.11-7.37-7.3-9.88-12-.81-1.52-.35-1.8.86-2.25,3.56-1.34,7.14-2.64,10.63-4.14,1.59-.68,2.06-.15,2.44,1.28,1.27,4.76,2.09,9.55,1.34,14.49-.08.52-.38,1.18.14,1.58a2.5,2.5,0,0,0,1.54.55c.68-.07.61-.86.67-1.35a29.55,29.55,0,0,0-1.83-15.31c-.94-2.23-.81-2.61,1.41-3.51s4.46-1.65,6.59-2.69c1.79-.88,2.49-.39,2.79,1.44C45,27.81,41.89,35.17,35.17,41.2a1.63,1.63,0,0,1-2.18.25,3.22,3.22,0,0,0-4.67,1.69,3.37,3.37,0,0,0,1.88,4.33,3.31,3.31,0,0,0,4.46-2.24,3.46,3.46,0,0,1,1.19-1.86A26,26,0,0,0,43.76,33.3C46.67,26.55,47.12,19.8,43.43,13.14Z"/></g></g></g></svg>