<svg xmlns="http://www.w3.org/2000/svg" viewBox="0 0 57.15 55.73"><defs><style>.cls-1{fill:#334561;}.cls-2{fill:#fff;}</style></defs><g id="Calque_2" data-name="Calque 2"><g id="Calque_1-2" data-name="Calque 1"><g id="Layer_2" data-name="Layer 2"><g id="Layer_1-2" data-name="Layer 1-2"><g id="Layer_2-2" data-name="Layer 2-2"><g id="Surfaces"><g id="Video_Audio_Surface" data-name="Video Audio Surface"><g id="Outline_no_shadow" data-name="Outline no shadow"><path class="cls-1" d="M10.12,0H47A10.1,10.1,0,0,1,57.15,10.1V45.6a10.11,10.11,0,0,1-10.1,10.13H10.12A10.12,10.12,0,0,1,0,45.62V10.12A10.11,10.11,0,0,1,10.1,0Z"/></g></g></g><g id="Outlined_Mnemonics_Logos" data-name="Outlined Mnemonics Logos"><g id="Ae"><path class="cls-2" d="M23,33.34H14.1L12.29,39a.41.41,0,0,1-.45.33H7.36c-.26,0-.33-.14-.26-.42l7.67-22,.23-.73a8.06,8.06,0,0,0,.15-1.55.22.22,0,0,1,.19-.26H21.5c.17,0,.29.07.31.19l8.7,24.41c.07.26,0,.38-.24.38h-5a.38.38,0,0,1-.38-.26ZM15.48,28.6h6.05c-.14-.5-.34-1.09-.55-1.71s-.43-1.34-.64-2.05-.45-1.45-.69-2.19-.46-1.43-.65-2.12-.35-1.29-.52-1.86h-.05a27.19,27.19,0,0,1-.81,3.07c-.35,1.15-.71,2.34-1.09,3.53S15.84,27.6,15.48,28.6Z"/><path class="cls-2" d="M44.63,31.15H37.08a5.22,5.22,0,0,0,.74,2.12,3.76,3.76,0,0,0,1.74,1.43,7.39,7.39,0,0,0,3,.59A13.73,13.73,0,0,0,45.08,35a8.6,8.6,0,0,0,2.12-.55c.12-.09.19,0,.19.19v3.65a.92.92,0,0,1,0,.28.52.52,0,0,1-.16.17,10.51,10.51,0,0,1-2.38.71,16.07,16.07,0,0,1-3.39.29,11.41,11.41,0,0,1-4.57-.83,8.05,8.05,0,0,1-3-2.27,8.66,8.66,0,0,1-1.64-3.12,12.31,12.31,0,0,1,.09-7.26A9.72,9.72,0,0,1,34.08,23,8.69,8.69,0,0,1,37,20.77a9,9,0,0,1,4-.74,8.52,8.52,0,0,1,3.69.74,6.57,6.57,0,0,1,2.5,1.9,8.65,8.65,0,0,1,1.43,2.72,9.5,9.5,0,0,1,.45,2.9c0,.57,0,1.07,0,1.53s-.07.78-.09,1a.35.35,0,0,1-.34.31l-.78,0a9.12,9.12,0,0,1-1.38.07C45.82,31.24,45.25,31.15,44.63,31.15Zm-7.55-3.48h5c.62,0,1.08,0,1.36,0a1.17,1.17,0,0,0,.55-.19v-.24a2.89,2.89,0,0,0-.14-.88,3.15,3.15,0,0,0-3.1-2.19A3.34,3.34,0,0,0,37.6,26,5.07,5.07,0,0,0,37.08,27.67Z"/></g></g></g></g></g></g></g></svg>