<svg xmlns="http://www.w3.org/2000/svg" viewBox="0 0 57.15 55.73"><defs><style>.cls-1{fill:#334561;}.cls-2{fill:#fff;}</style></defs><g id="Calque_2" data-name="Calque 2"><g id="Calque_1-2" data-name="Calque 1"><g id="Layer_2" data-name="Layer 2"><g id="Layer_1-2" data-name="Layer 1-2"><path class="cls-1" d="M10.12,0H47A10.1,10.1,0,0,1,57.15,10.1V45.6a10.11,10.11,0,0,1-10.1,10.13H10.12A10.12,10.12,0,0,1,0,45.62H0V10.12A10.11,10.11,0,0,1,10.1,0Z"/><path class="cls-2" d="M22.45,33.34H13.6L11.79,39a.41.41,0,0,1-.44.33H6.87c-.27,0-.34-.13-.27-.42l7.67-22a5.81,5.81,0,0,1,.24-.78,7,7,0,0,0,.2-1.51.23.23,0,0,1,.2-.26h6.18a.28.28,0,0,1,.31.2l8.65,24.43c.07.27,0,.38-.24.38h-5a.38.38,0,0,1-.38-.27ZM15,28.6h6c-.13-.49-.33-1.09-.56-1.72s-.42-1.34-.64-2.05-.45-1.45-.69-2.18-.45-1.43-.65-2.12-.35-1.29-.53-1.85H17.9a29.63,29.63,0,0,1-.8,3.08c-.36,1.13-.72,2.34-1.09,3.52s-.63,2.23-1,3.32Z"/><path class="cls-2" d="M48.31,20.53v14.6c0,.65,0,1.2,0,1.72s0,.93.06,1.31.07.61.09.85-.07.31-.27.31H44.14a.42.42,0,0,1-.45-.26l-.13-.61a2,2,0,0,1-.05-.49,6.63,6.63,0,0,1-2.69,1.47,9.23,9.23,0,0,1-2.66.36,7.53,7.53,0,0,1-2.58-.4,5.09,5.09,0,0,1-2-1.31,5.89,5.89,0,0,1-1.34-2.32,10.82,10.82,0,0,1-.48-3.39V20.55a.27.27,0,0,1,.23-.31H36.6a.27.27,0,0,1,.31.23h0V31.74a4,4,0,0,0,.69,2.47,3.07,3.07,0,0,0,2.46.92,4.73,4.73,0,0,0,1.62-.29,5.73,5.73,0,0,0,1.49-.78V20.53c0-.16.11-.27.33-.27h4.55a.25.25,0,0,1,.27.2A.06.06,0,0,0,48.31,20.53Z"/></g></g></g></g></svg>