<svg xmlns="http://www.w3.org/2000/svg" viewBox="0 0 57.15 55.73"><defs><style>.cls-1{fill:#334561;}.cls-2{fill:#fff;}</style></defs><g id="Calque_2" data-name="Calque 2"><g id="Calque_1-2" data-name="Calque 1"><g id="Layer_2" data-name="Layer 2"><g id="Layer_1-2" data-name="Layer 1-2"><g id="Layer_2-2" data-name="Layer 2-2"><g id="Surfaces"><g id="Drawing_Surface" data-name="Drawing Surface"><g id="Outline_no_shadow" data-name="Outline no shadow"><path class="cls-1" d="M10.12,0H47A10.1,10.1,0,0,1,57.15,10.1V45.6a10.11,10.11,0,0,1-10.1,10.13H10.12A10.12,10.12,0,0,1,0,45.62V10.12A10.11,10.11,0,0,1,10.1,0Z"/></g></g></g><g id="Outlined_Mnemonics_Logos" data-name="Outlined Mnemonics Logos"><g id="Ai"><path class="cls-2" d="M27.7,33.44H18.84L17,39a.43.43,0,0,1-.46.34H12.1c-.26,0-.34-.15-.26-.43L19.5,16.86c.08-.24.15-.5.24-.79a8,8,0,0,0,.15-1.54.24.24,0,0,1,.19-.27h6.16c.19,0,.29.08.31.2L35.25,39c.07.27,0,.39-.24.39H30a.38.38,0,0,1-.38-.27ZM20.22,28.6h6.05c-.15-.5-.34-1.09-.55-1.71s-.43-1.34-.64-2.05-.46-1.45-.69-2.19-.46-1.43-.65-2.12-.35-1.29-.52-1.86h0a27.19,27.19,0,0,1-.81,3.07c-.36,1.15-.71,2.34-1.09,3.53S20.58,27.6,20.22,28.6Z"/><path class="cls-2" d="M40.44,18.34a3,3,0,0,1-2.12-.84,3,3,0,0,1-.81-2.19,2.8,2.8,0,0,1,.86-2.12,3,3,0,0,1,2.11-.83,2.88,2.88,0,0,1,2.17.83,3,3,0,0,1,.79,2.12,3,3,0,0,1-.84,2.19A2.77,2.77,0,0,1,40.44,18.34ZM37.77,39V20.67c0-.24.1-.33.31-.33h4.71c.22,0,.31.12.31.33V39c0,.26-.09.38-.31.38H38.13a.33.33,0,0,1-.36-.31Z"/></g></g></g></g></g></g></g></svg>