<svg xmlns="http://www.w3.org/2000/svg" viewBox="0 0 57.15 55.73"><defs><style>.cls-1{fill:#334561;}.cls-2{fill:#fff;}</style></defs><g id="Calque_2" data-name="Calque 2"><g id="Calque_1-2" data-name="Calque 1"><g id="Layer_2" data-name="Layer 2"><g id="Layer_1-2" data-name="Layer 1-2"><g id="Surfaces"><g id="Publishing_Surface" data-name="Publishing Surface"><g id="Outline_no_shadow" data-name="Outline no shadow"><path class="cls-1" d="M10.12,0H47A10.1,10.1,0,0,1,57.15,10.1V45.6a10.11,10.11,0,0,1-10.1,10.13H10.12A10.12,10.12,0,0,1,0,45.62V10.12A10.11,10.11,0,0,1,10.1,0Z"/></g></g></g><g id="Outlined_Mnemonics_Logos" data-name="Outlined Mnemonics Logos"><g id="Id"><path class="cls-2" d="M20.77,14.57V39c0,.26-.12.38-.34.38H15.77c-.22,0-.31-.12-.31-.38V14.57c0-.21.11-.31.33-.31h4.64a.27.27,0,0,1,.31.23h0A.11.11,0,0,1,20.77,14.57Z"/><path class="cls-2" d="M34.48,39.77a11.92,11.92,0,0,1-5.12-1.07,8.33,8.33,0,0,1-3.59-3.24A10.3,10.3,0,0,1,24.46,30a9.71,9.71,0,0,1,1.31-5,9.88,9.88,0,0,1,3.78-3.7,12.3,12.3,0,0,1,6-1.38,4.19,4.19,0,0,1,.5,0l.74,0V12.48c0-.17.07-.26.24-.26h4.83a.21.21,0,0,1,.24.16V35.1c0,.43,0,.91,0,1.43s.07,1,.09,1.38a.37.37,0,0,1-.24.38,18,18,0,0,1-3.88,1.15A20.53,20.53,0,0,1,34.48,39.77ZM36.82,35V24.53c-.21-.05-.43-.09-.65-.12s-.52-.05-.78-.05A5.81,5.81,0,0,0,32.7,25a4.89,4.89,0,0,0-2.81,4.79,6.6,6.6,0,0,0,.4,2.45,4.68,4.68,0,0,0,1.07,1.69,4,4,0,0,0,1.62,1,6.07,6.07,0,0,0,2,.31c.36,0,.69,0,1,0A2.11,2.11,0,0,0,36.82,35Z"/></g></g></g></g></g></g></svg>