<svg xmlns="http://www.w3.org/2000/svg" viewBox="0 0 57.15 55.73"><defs><style>.cls-1{fill:#334561;}.cls-2{fill:#fff;}</style></defs><g id="Calque_2" data-name="Calque 2"><g id="Calque_1-2" data-name="Calque 1"><g id="Layer_2" data-name="Layer 2"><g id="Layer_1-2" data-name="Layer 1-2"><g id="Layer_2-2" data-name="Layer 2-2"><g id="Surfaces"><g id="Photo_Surface" data-name="Photo Surface"><g id="Outline_no_shadow" data-name="Outline no shadow"><path class="cls-1" d="M10.12,0H47A10.1,10.1,0,0,1,57.15,10.1V45.6a10.11,10.11,0,0,1-10.1,10.13H10.12A10.12,10.12,0,0,1,0,45.62V10.12A10.11,10.11,0,0,1,10.1,0Z"/></g></g></g><g id="Outlined_Mnemonics_Logos" data-name="Outlined Mnemonics Logos"><g id="Lr"><path class="cls-2" d="M30,39.39H14.91c-.26,0-.38-.14-.38-.43V14.62a.29.29,0,0,1,.25-.33h4.77a.23.23,0,0,1,.26.18h0V34.55h11c.23,0,.31.12.26.34L30.39,39a.41.41,0,0,1-.15.29A.39.39,0,0,1,30,39.39Z"/><path class="cls-2" d="M33.82,20.34H38a.52.52,0,0,1,.5.38,1.34,1.34,0,0,1,.19.55,6.17,6.17,0,0,1,.12.73,7.25,7.25,0,0,1,.05.86,9,9,0,0,1,2.55-2.05A7.08,7.08,0,0,1,44.94,20a.29.29,0,0,1,.33.25h0V25c0,.19-.12.26-.38.26a9.66,9.66,0,0,0-4.5.81,4.22,4.22,0,0,0-1.29.88V39.06c0,.23-.09.33-.31.33H34.15a.33.33,0,0,1-.38-.27V25.81c0-.57,0-1.16,0-1.78s0-1.24,0-1.86-.07-1.05-.15-1.57a.22.22,0,0,1,.17-.26h0s.05,0,.1,0Z"/></g></g></g></g></g></g></g></svg>