<svg xmlns="http://www.w3.org/2000/svg" viewBox="0 0 57.15 55.73"><defs><style>.cls-1{fill:#334561;}.cls-2{fill:#fff;}</style></defs><g id="Calque_2" data-name="Calque 2"><g id="Calque_1-2" data-name="Calque 1"><g id="Layer_2" data-name="Layer 2"><g id="Layer_1-2" data-name="Layer 1-2"><g id="Layer_2-2" data-name="Layer 2-2"><g id="Surfaces"><g id="Photo_Surface" data-name="Photo Surface"><g id="Outline_no_shadow" data-name="Outline no shadow"><path class="cls-1" d="M10.12,0H47A10.1,10.1,0,0,1,57.15,10.1V45.6a10.11,10.11,0,0,1-10.1,10.13H10.12A10.12,10.12,0,0,1,0,45.62V10.12A10.11,10.11,0,0,1,10.1,0Z"/></g></g></g><g id="Outlined_Mnemonics_Logos" data-name="Outlined Mnemonics Logos"><g id="Ps"><path class="cls-2" d="M12.86,39.08V14.57c0-.16.07-.26.24-.26.4,0,.78,0,1.33,0s1.17,0,1.81,0,1.34,0,2.07-.05,1.46,0,2.17,0a14.06,14.06,0,0,1,4.91.74,8.49,8.49,0,0,1,3.19,1.95,7.73,7.73,0,0,1,1.74,2.72,9.06,9.06,0,0,1,.54,3.09,8.44,8.44,0,0,1-1.43,5.07,8.07,8.07,0,0,1-3.83,2.91,15.55,15.55,0,0,1-5.36.81c-.57,0-.95,0-1.19,0a9.38,9.38,0,0,0-1,0v7.65a.29.29,0,0,1-.26.33H13.15C13,39.39,12.86,39.29,12.86,39.08Zm5.19-20.17v8c.33,0,.64.05.93.05h1.26A9.07,9.07,0,0,0,23,26.53a4,4,0,0,0,1.95-1.26,3.71,3.71,0,0,0,.74-2.46,4,4,0,0,0-.55-2.12,3.44,3.44,0,0,0-1.66-1.35,7.11,7.11,0,0,0-2.81-.48c-.62,0-1.17,0-1.62,0a5.35,5.35,0,0,0-1,0Z"/><path class="cls-2" d="M45.72,25.46a8.5,8.5,0,0,0-2.28-.81,12.64,12.64,0,0,0-2.67-.31,4.63,4.63,0,0,0-1.43.17,1.22,1.22,0,0,0-.74.47,1.32,1.32,0,0,0-.19.64,1.06,1.06,0,0,0,.24.62,2.67,2.67,0,0,0,.81.65c.55.28,1.12.54,1.69.78a17.63,17.63,0,0,1,3.67,1.74,5.49,5.49,0,0,1,1.88,2,5.2,5.2,0,0,1,.55,2.45A5.57,5.57,0,0,1,46.32,37a6,6,0,0,1-2.67,2.12,10.87,10.87,0,0,1-4.31.76,16.78,16.78,0,0,1-3.24-.31,9.94,9.94,0,0,1-2.43-.76.49.49,0,0,1-.26-.45V34.22a.25.25,0,0,1,.1-.21.18.18,0,0,1,.21,0,10.27,10.27,0,0,0,3,1.17,11.16,11.16,0,0,0,2.81.36,4.45,4.45,0,0,0,2-.34,1.1,1.1,0,0,0,.64-1,1.26,1.26,0,0,0-.57-.95,9.84,9.84,0,0,0-2.33-1.12,14.17,14.17,0,0,1-3.38-1.72,6,6,0,0,1-1.81-2A5.12,5.12,0,0,1,33.46,26a5.55,5.55,0,0,1,.81-2.88,5.77,5.77,0,0,1,2.5-2.19A9.24,9.24,0,0,1,41,20.08a20.94,20.94,0,0,1,3,.21,8.64,8.64,0,0,1,2.05.55.37.37,0,0,1,.23.21,1,1,0,0,1,.05.29v3.88a.3.3,0,0,1-.12.24A.64.64,0,0,1,45.72,25.46Z"/></g></g></g></g></g></g></g></svg>