<svg xmlns="http://www.w3.org/2000/svg" viewBox="0 0 57.15 55.73"><defs><style>.cls-1{fill:#334561;}.cls-2{fill:#fff;}</style></defs><g id="Calque_2" data-name="Calque 2"><g id="Calque_1-2" data-name="Calque 1"><g id="Layer_2" data-name="Layer 2"><g id="Layer_1-2" data-name="Layer 1-2"><g id="Layer_2-2" data-name="Layer 2-2"><g id="Surfaces"><g id="Video_Audio_Surface" data-name="Video Audio Surface"><g id="Outline_no_shadow" data-name="Outline no shadow"><path class="cls-1" d="M10.12,0H47A10.1,10.1,0,0,1,57.15,10.1V45.6a10.11,10.11,0,0,1-10.1,10.13H10.12A10.12,10.12,0,0,1,0,45.62V10.12A10.11,10.11,0,0,1,10.1,0Z"/></g></g></g><g id="Outlined_Mnemonics_Logos" data-name="Outlined Mnemonics Logos"><g id="Pr"><path class="cls-2" d="M13.57,39.08V14.57c0-.16.08-.26.24-.26.41,0,.79,0,1.34,0s1.16,0,1.81,0,1.33,0,2.07-.05,1.45,0,2.16,0a14,14,0,0,1,4.91.74,8.34,8.34,0,0,1,3.19,1.95A7.59,7.59,0,0,1,31,19.58a9.07,9.07,0,0,1,.55,3.09,8.51,8.51,0,0,1-1.43,5.07,8.12,8.12,0,0,1-3.83,2.91,15.58,15.58,0,0,1-5.36.81c-.57,0-1,0-1.19,0a9.58,9.58,0,0,0-1,0v7.65a.29.29,0,0,1-.25.33H13.86C13.67,39.39,13.57,39.29,13.57,39.08Zm5.2-20.17v8c.33,0,.64.05.92.05H21a9.12,9.12,0,0,0,2.74-.43,4.13,4.13,0,0,0,1.95-1.26,3.71,3.71,0,0,0,.74-2.46,4,4,0,0,0-.55-2.12,3.47,3.47,0,0,0-1.67-1.35,7.08,7.08,0,0,0-2.81-.48c-.62,0-1.17,0-1.62,0a5.25,5.25,0,0,0-1,0Z"/><path class="cls-2" d="M34.91,20.29h4.17a.55.55,0,0,1,.5.38,2.39,2.39,0,0,1,.14.6,6.17,6.17,0,0,1,.12.73,7.25,7.25,0,0,1,0,.86,8.9,8.9,0,0,1,2.55-2.05,7.36,7.36,0,0,1,3.62-.92.29.29,0,0,1,.33.25h0v4.74c0,.19-.12.26-.38.26a10.09,10.09,0,0,0-2.57.24,9.33,9.33,0,0,0-2,.64,3.81,3.81,0,0,0-1.22.88V39.06c0,.23-.09.33-.31.33H35.22a.33.33,0,0,1-.38-.27V25.81c0-.57,0-1.16,0-1.78s0-1.24,0-1.86-.05-1.07-.1-1.62a.22.22,0,0,1,.17-.26h0s0,0,.07,0Z"/></g></g></g></g></g></g></g></svg>