<svg xmlns="http://www.w3.org/2000/svg" viewBox="0 0 57.15 55.73"><defs><style>.cls-1{fill:#334561;}.cls-2{fill:#fff;}</style></defs><g id="Calque_2" data-name="Calque 2"><g id="Calque_1-2" data-name="Calque 1"><g id="Layer_2" data-name="Layer 2"><g id="Layer_1-2" data-name="Layer 1-2"><g id="Layer_2-2" data-name="Layer 2-2"><g id="Surfaces"><g id="UI_UX_Surface" data-name="UI UX Surface"><g id="Outline_no_shadow" data-name="Outline no shadow"><path class="cls-1" d="M10.12,0H47A10.1,10.1,0,0,1,57.15,10.1V45.6a10.11,10.11,0,0,1-10.1,10.13H10.12A10.12,10.12,0,0,1,0,45.62V10.12A10.11,10.11,0,0,1,10.1,0Z"/></g></g></g><g id="Outlined_Mnemonics_Logos" data-name="Outlined Mnemonics Logos"><g id="Xd"><path class="cls-2" d="M30.05,14.65,22.91,26.43l7.62,12.51a.39.39,0,0,1,0,.28c0,.1-.12,0-.26.05H24.86c-.38,0-.64,0-.81-.26-.5-1-1-2-1.52-3s-1.05-2-1.62-3l-1.72-3.1h0c-.5,1-1,2.05-1.6,3.08s-1.09,2-1.62,3.05-1.09,2-1.64,3c-.1.23-.29.26-.55.26H8.5c-.09,0-.16,0-.16-.07a.32.32,0,0,1,0-.27l7.41-12.14L8.57,14.62c-.07-.09-.09-.19,0-.24a.27.27,0,0,1,.23-.09h5.41a1.26,1.26,0,0,1,.33.05.61.61,0,0,1,.24.21c.45,1,1,2.05,1.53,3.07s1.11,2,1.71,3,1.1,2,1.6,3h0c.5-1.05,1-2.07,1.55-3.07s1.07-2,1.62-3,1.07-2,1.6-3a.33.33,0,0,1,.14-.24.47.47,0,0,1,.31,0h5a.24.24,0,0,1,.27.17h0S30.1,14.6,30.05,14.65Z"/><path class="cls-2" d="M41.06,39.77a11.86,11.86,0,0,1-5.12-1.07,8.3,8.3,0,0,1-3.6-3.24A10.3,10.3,0,0,1,31,30a9.79,9.79,0,0,1,5.1-8.72,12.23,12.23,0,0,1,6-1.38,4.07,4.07,0,0,1,.5,0l.74,0V12.48c0-.17.07-.26.24-.26h4.83a.21.21,0,0,1,.24.16V35.1c0,.43,0,.91,0,1.43s.07,1,.09,1.38a.38.38,0,0,1-.23.38,18.12,18.12,0,0,1-3.89,1.15A20.42,20.42,0,0,1,41.06,39.77ZM43.39,35V24.53c-.21-.05-.43-.09-.64-.12s-.53-.05-.79-.05a5.87,5.87,0,0,0-2.69.62,5.36,5.36,0,0,0-2,1.76,5.27,5.27,0,0,0-.79,3,6.81,6.81,0,0,0,.4,2.45,4.7,4.7,0,0,0,1.08,1.69,4,4,0,0,0,1.62,1,6,6,0,0,0,2,.31c.36,0,.69,0,1,0A2.09,2.09,0,0,0,43.39,35Z"/></g></g></g></g></g></g></g></svg>