<?xml version="1.0" encoding="utf-8"?>
<!-- Generator: Adobe Illustrator 24.3.0, SVG Export Plug-In . SVG Version: 6.00 Build 0)  -->
<svg version="1.1" id="Calque_1" xmlns="http://www.w3.org/2000/svg" xmlns:xlink="http://www.w3.org/1999/xlink" x="0px" y="0px"
	 viewBox="0 0 320 560" style="enable-background:new 0 0 320 560;" xml:space="preserve">
<style type="text/css">
	.st0{fill:#025373;}
</style>
<g id="Calque_2_1_">
	<g id="Capa_1">
		<g id="Rounded_Rectangle_33_copy_4">
			<path class="st0" d="M224.2,280L11.9,491.1C-3.9,506.8-4,532.2,11.7,548c0.1,0.1,0.2,0.2,0.2,0.2c15.9,15.8,41.5,15.8,57.4,0
				l238.9-237.6c8.1-8,12.4-19.2,11.7-30.6c0.6-11.4-3.6-22.5-11.7-30.6L69.3,11.8c-15.9-15.8-41.5-15.8-57.4,0
				C-3.9,27.4-4,52.9,11.6,68.6c0.1,0.1,0.2,0.2,0.3,0.3L224.2,280z"/>
		</g>
	</g>
</g>
</svg>
