<?xml version="1.0" encoding="iso-8859-1"?>
<!-- Generator: Adobe Illustrator 19.0.0, SVG Export Plug-In . SVG Version: 6.00 Build 0)  -->
<svg version="1.1" id="Capa_1" xmlns="http://www.w3.org/2000/svg" xmlns:xlink="http://www.w3.org/1999/xlink" x="0px" y="0px"
	 viewBox="0 0 512 512" style="enable-background:new 0 0 512 512;" xml:space="preserve">
<g>
	<g>
		<path d="M0,0v512h512V0H0z M482,482H30V30h452V482z"/>
	</g>
</g>
<g>
	<g>
		<path d="M199.66,181.6h-29.28L105.34,352h34.08l15.6-42.48h59.52L230.38,352h34.08L199.66,181.6z M160.54,286.24l24.48-66.96
			l23.52,66.96H160.54z"/>
	</g>
</g>
<g>
	<g>
		<path d="M393.58,315.04v-88.8h-32.16v78c-3.683,7.68-13.769,22.8-32.4,22.8c-13.92,0-20.88-9.679-20.88-29.04v-71.76h-32.16v78.72
			c0,32.54,13.921,49.44,39.601,49.44c29.82,0,45.037-17.28,50.639-25.92l0.72,10.08c0.637,4.643,4.711,14.88,20.4,14.88
			c1.758,0,3.72-0.083,5.88-0.24c2.159-0.161,4.837-0.563,8.04-1.2v-27.36C393.9,324.25,393.58,318.4,393.58,315.04z"/>
	</g>
</g>
<g>
</g>
<g>
</g>
<g>
</g>
<g>
</g>
<g>
</g>
<g>
</g>
<g>
</g>
<g>
</g>
<g>
</g>
<g>
</g>
<g>
</g>
<g>
</g>
<g>
</g>
<g>
</g>
<g>
</g>
</svg>
