<svg id="Capa_1" enable-background="new 0 0 512 512" height="512" viewBox="0 0 512 512" width="512" xmlns="http://www.w3.org/2000/svg"><g><path d="m396.028 99.796c-5.486 0-10.985.395-16.44 1.177-27.405-41.079-73.814-66.181-123.588-66.181s-96.183 25.102-123.588 66.181c-5.455-.782-10.954-1.177-16.44-1.177-63.947 0-115.972 52.025-115.972 115.972s52.025 115.973 115.972 115.973h31.132v145.467h217.791v-145.467h31.132c63.947 0 115.972-52.025 115.972-115.973s-52.024-115.972-115.971-115.972zm-61.132 347.412h-157.792v-162.81h55.088v-55.089h102.703v217.899zm-155.496-192.81 22.792-22.792v22.792zm216.628 47.343h-31.132v-102.432h-172.833l-44.958 44.959v57.473h-31.132c-47.406 0-85.973-38.568-85.973-85.973s38.567-85.972 85.972-85.972c6.785 0 13.602.815 20.263 2.425l11.003 2.657 5.574-9.852c21.021-37.153 60.56-60.234 103.188-60.234s82.167 23.08 103.188 60.234l5.574 9.852 11.003-2.657c6.661-1.609 13.479-2.425 20.263-2.425 47.405 0 85.972 38.566 85.972 85.972s-38.567 85.973-85.972 85.973z"/><path d="m207.104 314.398h97.791v30h-97.791z"/><path d="m207.104 374.398h97.791v30h-97.791z"/></g></svg>