<svg height="512pt" viewBox="-95 0 512 512" width="512pt" xmlns="http://www.w3.org/2000/svg"><path d="m238.78125 454.480469v-18.289063c5.40625-1.4375 10.355469-4.414062 14.171875-8.625 2.785156-3.074218 2.550781-7.824218-.519531-10.605468-3.074219-2.785157-7.820313-2.554688-10.605469.519531-2.695313 2.976562-6.542969 4.679687-10.554687 4.679687-7.847657 0-14.234376-6.382812-14.234376-14.234375 0-7.851562 6.386719-14.234375 14.234376-14.234375 4.308593 0 8.335937 1.917969 11.058593 5.265625 2.613281 3.21875 7.34375 3.703125 10.558594 1.089844 3.21875-2.617187 3.707031-7.34375 1.089844-10.5625-3.960938-4.875-9.28125-8.265625-15.199219-9.828125v-17.375c12.503906-3.324219 21.746094-14.738281 21.746094-28.269531 0-14.886719-11.179688-27.203125-25.582032-29.015625l-45.484374-52.976563c.628906-2.378906.964843-4.871093.964843-7.445312 0-13.535157-9.242187-24.945313-21.742187-28.269531v-23.902344c0-.421875-.042969-.832032-.109375-1.230469 12.558593-3.285156 21.851562-14.726563 21.851562-28.300781 0-13.535156-9.242187-24.949219-21.742187-28.269532v-21.175781c0-4.148437-3.363282-7.511719-7.507813-7.511719-4.148437 0-7.507812 3.363282-7.507812 7.511719v21.175781c-12.503907 3.320313-21.742188 14.734376-21.742188 28.269532 0 13.574218 9.292969 25.015625 21.851563 28.300781-.066406.398437-.109375.808594-.109375 1.230469v23.902344c-12.503907 3.324218-21.742188 14.734374-21.742188 28.269531 0 3.710937.703125 7.261719 1.96875 10.53125l-42.835937 49.890625c-14.402344 1.8125-25.582032 14.128906-25.582032 29.015625 0 13.53125 9.242188 24.945312 21.742188 28.269531v17.375c-12.5 3.324219-21.742188 14.734375-21.742188 28.269531 0 13.535157 9.242188 24.945313 21.742188 28.269531v18.285157c-12.5 3.320312-21.742188 14.734375-21.742188 28.269531 0 16.128906 13.121094 29.25 29.25 29.25 16.128907 0 29.253907-13.121094 29.253907-29.25 0-13.535156-9.242188-24.949219-21.746094-28.269531v-18.285157c12.503906-3.324218 21.746094-14.734374 21.746094-28.269531 0-13.535156-9.242188-24.945312-21.746094-28.269531v-17.375c12.503906-3.324219 21.746094-14.738281 21.746094-28.269531 0-11.269531-6.410157-21.0625-15.765625-25.945313l34.828125-40.566406c4.988281 3.953125 11.285156 6.324219 18.132812 6.324219 7.84375 0 14.964844-3.105469 20.222657-8.144531l36.390624 42.386718c-9.355468 4.882813-15.765624 14.675782-15.765624 25.945313 0 13.53125 9.242187 24.945312 21.746093 28.269531v17.375c-12.503906 3.324219-21.746093 14.734375-21.746093 28.269531 0 13.535157 9.242187 24.945313 21.746093 28.269531v18.285157c-12.503906 3.320312-21.746093 14.734375-21.746093 28.269531 0 16.128906 13.125 29.25 29.253906 29.25s29.25-13.121094 29.25-29.25c0-13.535156-9.242188-24.949219-21.746094-28.269531zm-91.84375-291.613281c0-7.847657 6.386719-14.234376 14.238281-14.234376 7.847657 0 14.234375 6.386719 14.234375 14.234376 0 7.851562-6.386718 14.238281-14.234375 14.238281-7.851562 0-14.238281-6.386719-14.238281-14.238281zm-37.976562 319.882812c0 7.847656-6.386719 14.234375-14.234376 14.234375-7.851562 0-14.238281-6.386719-14.238281-14.234375 0-7.851562 6.386719-14.238281 14.238281-14.238281 7.847657 0 14.234376 6.386719 14.234376 14.238281zm0-74.824219c0 7.851563-6.386719 14.234375-14.234376 14.234375-7.851562 0-14.238281-6.382812-14.238281-14.234375 0-7.851562 6.386719-14.234375 14.238281-14.234375 7.847657 0 14.234376 6.382813 14.234376 14.234375zm-14.234376-59.679687c-7.847656 0-14.238281-6.386719-14.238281-14.238282 0-7.847656 6.386719-14.234374 14.238281-14.234374 7.847657 0 14.234376 6.386718 14.234376 14.234374 0 7.851563-6.386719 14.238282-14.234376 14.238282zm66.449219-89.4375c-7.851562 0-14.238281-6.382813-14.238281-14.234375 0-7.851563 6.386719-14.238281 14.238281-14.238281 7.847657 0 14.234375 6.386718 14.234375 14.238281 0 7.851562-6.386718 14.234375-14.234375 14.234375zm55.863281 75.203125c0-7.851563 6.386719-14.238281 14.234376-14.238281 7.851562 0 14.238281 6.386718 14.238281 14.238281 0 7.847656-6.386719 14.234375-14.238281 14.234375-7.847657 0-14.234376-6.386719-14.234376-14.234375zm14.234376 162.972656c-7.847657 0-14.234376-6.386719-14.234376-14.238281 0-7.847656 6.386719-14.234375 14.234376-14.234375 7.851562 0 14.238281 6.386719 14.238281 14.234375 0 7.851562-6.386719 14.238281-14.238281 14.238281zm0 0"/><path d="m161.175781 0c-5.472656 0-10.832031.933594-15.9375 2.777344-3.902343 1.40625-5.921875 5.707031-4.515625 9.609375 1.40625 3.902343 5.707032 5.921875 9.609375 4.511719 3.46875-1.25 7.113281-1.882813 10.84375-1.882813 17.613281 0 31.945313 14.328125 31.945313 31.945313 0 17.613281-14.332032 31.945312-31.945313 31.945312-17.617187 0-31.945312-14.332031-31.945312-31.945312 0-3.933594.703125-7.769532 2.09375-11.402344 1.480469-3.875-.457031-8.214844-4.332031-9.695313-3.871094-1.480469-8.210938.457031-9.691407 4.332031-2.046875 5.351563-3.085937 10.992188-3.085937 16.765626 0 25.894531 21.066406 46.960937 46.960937 46.960937s46.960938-21.066406 46.960938-46.960937c0-25.894532-21.066407-46.960938-46.960938-46.960938zm0 0"/><path d="m95.699219 84.429688c-16.128907 0-29.25 13.125-29.25 29.253906 0 3.144531.503906 6.175781 1.429687 9.015625l-34.441406 23.441406c-1.367188-.195313-2.765625-.300781-4.1875-.300781-16.128906 0-29.25 13.121094-29.25 29.25 0 13.535156 9.242188 24.945312 21.742188 28.269531v17.375c-12.5 3.324219-21.742188 14.738281-21.742188 28.273437 0 16.128907 13.121094 29.25 29.25 29.25s29.253906-13.121093 29.253906-29.25c0-13.535156-9.242187-24.949218-21.746094-28.273437v-17.375c12.503907-3.324219 21.746094-14.734375 21.746094-28.269531 0-8.46875-3.621094-16.105469-9.394531-21.449219l26.921875-18.324219c5.199219 4.730469 12.101562 7.617188 19.667969 7.617188 16.128906 0 29.25-13.121094 29.25-29.25s-13.121094-29.253906-29.25-29.253906zm-52.214844 164.578124c0 7.847657-6.382813 14.234376-14.234375 14.234376s-14.234375-6.386719-14.234375-14.234376c0-7.851562 6.382813-14.238281 14.234375-14.238281s14.234375 6.386719 14.234375 14.238281zm-14.234375-59.683593c-7.847656 0-14.234375-6.382813-14.234375-14.234375 0-7.851563 6.386719-14.238282 14.234375-14.238282 7.851562 0 14.238281 6.386719 14.238281 14.238282-.003906 7.851562-6.386719 14.234375-14.238281 14.234375zm66.449219-61.40625c-7.847657 0-14.234375-6.386719-14.234375-14.234375 0-7.851563 6.386718-14.238282 14.234375-14.238282 7.851562 0 14.238281 6.386719 14.238281 14.238282-.003906 7.847656-6.386719 14.234375-14.238281 14.234375zm0 0"/><path d="m300.605469 220.734375v-17.375c12.503906-3.324219 21.746093-14.734375 21.746093-28.269531 0-16.128906-13.125-29.25-29.253906-29.25-1.421875 0-2.816406.105468-4.1875.300781l-34.4375-23.441406c.921875-2.84375 1.429688-5.871094 1.429688-9.015625 0-16.128906-13.125-29.253906-29.253906-29.253906-16.128907 0-29.25 13.125-29.25 29.253906s13.121093 29.25 29.25 29.25c7.566406 0 14.472656-2.886719 19.671874-7.617188l26.917969 18.320313c-5.769531 5.347656-9.390625 12.984375-9.390625 21.453125 0 13.53125 9.242188 24.945312 21.742188 28.269531v17.375c-12.5 3.324219-21.742188 14.734375-21.742188 28.269531 0 16.128906 13.121094 29.253906 29.25 29.253906s29.253906-13.125 29.253906-29.253906c0-13.53125-9.242187-24.945312-21.746093-28.269531zm-73.953125-92.816406c-7.851563 0-14.238282-6.386719-14.238282-14.234375 0-7.851563 6.386719-14.238282 14.238282-14.238282 7.847656 0 14.234375 6.386719 14.234375 14.238282 0 7.847656-6.386719 14.234375-14.234375 14.234375zm52.210937 47.171875c0-7.851563 6.386719-14.238282 14.238281-14.238282 7.847657 0 14.234376 6.386719 14.234376 14.238282 0 7.851562-6.386719 14.234375-14.234376 14.234375-7.851562 0-14.238281-6.382813-14.238281-14.234375zm14.234375 88.152344c-7.847656 0-14.234375-6.386719-14.234375-14.238282 0-7.847656 6.386719-14.234375 14.234375-14.234375 7.851563 0 14.238282 6.386719 14.238282 14.234375 0 7.851563-6.386719 14.238282-14.238282 14.238282zm0 0"/></svg>