<?xml version="1.0" encoding="iso-8859-1"?>
<!-- Generator: Adobe Illustrator 19.0.0, SVG Export Plug-In . SVG Version: 6.00 Build 0)  -->
<svg version="1.1" id="Capa_1" xmlns="http://www.w3.org/2000/svg" xmlns:xlink="http://www.w3.org/1999/xlink" x="0px" y="0px"
	 viewBox="0 0 480.242 480.242" style="enable-background:new 0 0 480.242 480.242;" xml:space="preserve">
<g>
	<g>
		<path d="M480.241,59.342c0.039-6.368-2.477-12.485-6.984-16.984l-33.864-34.04c-9.345-9.396-24.538-9.439-33.936-0.096
			l-44.656,44.4c-0.304,0.178-0.598,0.373-0.88,0.584L87.705,324.094c-0.503,0.555-0.923,1.181-1.248,1.856
			c0,0.048-0.08,0.072-0.104,0.12l-0.088,0.16c-0.112,0.224-0.248,0.424-0.344,0.656L24.625,443.19L2.457,465.23
			c-3.186,3.061-3.287,8.125-0.226,11.311c3.061,3.186,8.125,3.287,11.311,0.226c0.066-0.063,0.131-0.128,0.195-0.194l21.52-21.384
			l117.352-61.088c1.105-0.377,2.114-0.995,2.952-1.808l266.528-265.2l11.28,11.344l-96.464,95.864
			c-3.133,3.117-3.145,8.183-0.028,11.316c3.117,3.133,8.183,3.145,11.316,0.028l102.128-101.512c3.123-3.124,3.123-8.188,0-11.312
			l-16.904-17.008l39.728-39.52C477.687,71.823,480.244,65.715,480.241,59.342z M49.921,429.518l45.504-86.328l41.056,41.24
			L49.921,429.518z M149.977,375.278l-45.288-45.512l260.8-259.544l45.288,45.52L149.977,375.278z M461.913,64.918l-0.016,0.032
			l-39.704,39.48l-45.152-45.376l39.696-39.488c3.124-3.123,8.188-3.123,11.312,0l33.864,34.04
			C465.036,56.73,465.036,61.794,461.913,64.918z"/>
	</g>
</g>
<g>
</g>
<g>
</g>
<g>
</g>
<g>
</g>
<g>
</g>
<g>
</g>
<g>
</g>
<g>
</g>
<g>
</g>
<g>
</g>
<g>
</g>
<g>
</g>
<g>
</g>
<g>
</g>
<g>
</g>
</svg>
