<svg height="368pt" viewBox="0 0 368 368" width="368pt" xmlns="http://www.w3.org/2000/svg"><path d="m328 0h-288c-22.054688 0-40 17.945312-40 40v288c0 22.054688 17.945312 40 40 40h288c22.054688 0 40-17.945312 40-40v-288c0-22.054688-17.945312-40-40-40zm24 328c0 13.230469-10.769531 24-24 24h-288c-13.230469 0-24-10.769531-24-24v-288c0-13.230469 10.769531-24 24-24h288c13.230469 0 24 10.769531 24 24zm0 0"/><path d="m152 64h-80c-4.425781 0-8 3.585938-8 8v224c0 4.414062 3.574219 8 8 8h80c4.425781 0 8-3.585938 8-8v-224c0-4.414062-3.574219-8-8-8zm-8 224h-64v-208h64zm0 0"/><path d="m296 64h-80c-4.425781 0-8 3.585938-8 8v160c0 4.414062 3.574219 8 8 8h80c4.425781 0 8-3.585938 8-8v-160c0-4.414062-3.574219-8-8-8zm-8 160h-64v-144h64zm0 0"/></svg>