<svg xmlns="http://www.w3.org/2000/svg" viewBox="0 0 50 50"><defs><style>.cls-1{fill:#563d7c;}.cls-2{fill:#fff;}</style></defs><g id="Calque_2" data-name="Calque 2"><g id="Calque_1-2" data-name="Calque 1"><path class="cls-1" d="M50,41.67A8.36,8.36,0,0,1,41.67,50H8.33A8.36,8.36,0,0,1,0,41.67V8.33A8.36,8.36,0,0,1,8.33,0H41.67A8.36,8.36,0,0,1,50,8.33Z"/><path class="cls-2" d="M13.59,10.87H27.76a10.1,10.1,0,0,1,6.29,1.79,6.39,6.39,0,0,1,2.37,5.44,6.47,6.47,0,0,1-1.08,3.77,7,7,0,0,1-3.09,2.44v.08a6.36,6.36,0,0,1,4.09,2.55,8.47,8.47,0,0,1,1.39,5,8.49,8.49,0,0,1-.61,3.21,6.57,6.57,0,0,1-1.92,2.57,10,10,0,0,1-3.35,1.72A16.67,16.67,0,0,1,27,40H13.59V10.87Zm5.1,12.21H27a4.5,4.5,0,0,0,3.06-1,3.73,3.73,0,0,0,1.23-3,3.8,3.8,0,0,0-1.11-3.11A5,5,0,0,0,27,15H18.69v8.06Zm0,12.79h9a5,5,0,0,0,3.61-1.21,4.46,4.46,0,0,0,1.29-3.42,4.23,4.23,0,0,0-1.29-3.33,5.13,5.13,0,0,0-3.61-1.16h-9Z"/></g></g></svg>