<svg xmlns="http://www.w3.org/2000/svg" viewBox="0 0 49.38 56"><defs><style>.cls-1{fill:#264de4;}.cls-2{fill:#2965f1;}.cls-3{fill:#ebebeb;}.cls-4{fill:#fff;}</style></defs><g id="Calque_2" data-name="Calque 2"><g id="Calque_1-2" data-name="Calque 1"><g id="layer1"><g id="g3013"><polygon id="polygon2989" class="cls-1" points="49.38 0 44.88 50.39 24.66 56 4.49 50.4 0 0 49.38 0"/><polygon id="polygon2991" class="cls-2" points="41.03 47.19 44.87 4.12 24.69 4.12 24.69 51.72 41.03 47.19"/><polygon id="polygon2993" class="cls-3" points="10.3 22.82 10.86 29 24.69 29 24.69 22.82 10.3 22.82"/><polygon id="polygon2995" class="cls-3" points="24.69 10.3 24.67 10.3 9.19 10.3 9.75 16.48 24.69 16.48 24.69 10.3"/><polygon id="polygon2997" class="cls-3" points="24.69 45.3 24.69 38.87 24.66 38.88 17.78 37.02 17.34 32.09 13.99 32.09 11.13 32.09 12 41.79 24.66 45.31 24.69 45.3"/><polygon id="polygon3005" class="cls-4" points="32.28 29 31.56 37.01 24.67 38.87 24.67 45.3 37.34 41.79 37.43 40.75 38.89 24.47 39.04 22.82 40.15 10.3 24.67 10.3 24.67 16.48 33.38 16.48 32.82 22.82 24.67 22.82 24.67 29 32.28 29"/></g></g></g></g></svg>