<svg xmlns="http://www.w3.org/2000/svg" viewBox="0 0 58.61 56.22"><defs><style>.cls-1{fill:#0c66ac;}</style></defs><g id="Calque_2" data-name="Calque 2"><g id="Calque_1-2" data-name="Calque 1"><path class="cls-1" d="M6.79,8.79c-2.75,16,2,27.43,14.37,35.08,11.82,7.3,24.27,6.49,36.22-2.34C53.91,50.22,44.07,56.13,33,56.22A33.29,33.29,0,0,1,2.29,35.66C-1.88,25.53-.34,15.79,6.79,8.79Z"/><path class="cls-1" d="M22.12,3.5c-2.18,11.24,1.41,19.82,10.61,25.35,8.93,5.37,17.7,4.65,25.88-2.13-1.18,5.22-7.82,10-15,10.79A24,24,0,0,1,19.48,24.26C15.78,16.81,16.77,9,22.12,3.5Z"/><path class="cls-1" d="M34.77,0c-2,14.61,13.66,21.64,21.78,16-1.83,3.75-5.19,5.53-10.66,5.13-6.22-.44-10.57-3.81-12.89-9.54A10.85,10.85,0,0,1,34.77,0Z"/></g></g></svg>