<svg xmlns="http://www.w3.org/2000/svg" viewBox="0 0 57.57 55.22"><defs><style>.cls-1{fill:#f39248;}</style></defs><g id="Calque_2" data-name="Calque 2"><g id="Calque_1-2" data-name="Calque 1"><path class="cls-1" d="M6.67,8.63C4,24.39,8.62,35.57,20.78,43.09c11.61,7.17,23.84,6.38,35.58-2.29-3.41,8.53-13.07,14.33-24,14.42A32.69,32.69,0,0,1,2.25,35C-1.85,25.08-.33,15.51,6.67,8.63Z"/><path class="cls-1" d="M21.73,3.43c-2.14,11,1.38,19.48,10.42,24.91,8.77,5.28,17.38,4.57,25.42-2.09-1.17,5.12-7.68,9.82-14.7,10.59a23.61,23.61,0,0,1-23.74-13C15.5,16.51,16.47,8.83,21.73,3.43Z"/><path class="cls-1" d="M34.15,0C32.23,14.35,47.57,21.25,55.54,15.76c-1.79,3.68-5.09,5.42-10.47,5-6.1-.44-10.38-3.75-12.66-9.37A10.69,10.69,0,0,1,34.15,0Z"/></g></g></svg>