<svg xmlns="http://www.w3.org/2000/svg" viewBox="0 0 49.27 56"><defs><style>.cls-1,.cls-2{fill:#ebebeb;opacity:0.99;isolation:isolate;}.cls-1{fill-opacity:0;}.cls-2{fill-opacity:0.92;}.cls-3{fill:#334561;}.cls-4{fill:#fff;}</style></defs><g id="Calque_2" data-name="Calque 2"><g id="Calque_1-2" data-name="Calque 1"><g id="g5193"><path id="path5159" class="cls-1" d="M21.18,43.34c-.64-.2-3.77-1-7-1.91L8.44,39.88V37c0-2.84,0-2.9.28-2.8s2.27.63,4.69,1.31l4.4,1.21,0-12.88,0-12.88H22.7V27.31c0,13,0,16.37-.18,16.37s-.71-.17-1.34-.34Z"/><path id="path5157" class="cls-2" d="M8.34,39.91l0-5.89s6.07,1.71,9.51,2.59l.06-25.79h4.9v33L8.34,39.91Z"/><path class="cls-3" d="M0,0,4.57,50.35,24.6,56l20.14-5.69L49.27,0ZM22.79,43.82,8.34,39.91l0-5.89,9.51,2.59.06-25.81h4.9ZM41.32,24.23,40,40.36,26.71,43.82,26.62,38l9.61-2.55.13-4.77-9.53,1.64-.21-21.41,15.77-.08L42,16.68l-10.45,0v8.61Z"/></g><polygon class="cls-4" points="41.97 16.68 42.39 10.8 26.62 10.88 26.83 32.29 36.36 30.65 36.23 35.42 26.62 37.97 26.71 43.82 39.99 40.36 39.99 40.36 41.32 24.23 31.52 25.33 31.52 16.72 41.97 16.68"/><polygon class="cls-4" points="41.97 16.68 42.39 10.8 26.62 10.88 26.83 32.29 36.36 30.65 36.23 35.42 26.62 37.97 26.71 43.82 39.99 40.36 39.99 40.36 41.32 24.23 31.52 25.33 31.52 16.72 41.97 16.68"/></g></g></svg>