<svg xmlns="http://www.w3.org/2000/svg" viewBox="0 0 55.62 37.77"><defs><style>.cls-1{fill:#5d87a1;}.cls-2{fill:#f8981d;}</style></defs><g id="Calque_2" data-name="Calque 2"><g id="Calque_1-2" data-name="Calque 1"><path class="cls-1" d="M13.37,34.41H11.23Q11.11,29,10.6,24.19h0L7.31,34.41H5.68L2.43,24.19h0C2.17,27.26,2,30.66,2,34.41H0q.2-6.84,1-12.82H3.61L6.71,31h0l3.12-9.42h2.54q.84,7,1,12.82M22.68,25q-1.3,7.11-3.46,10.34c-1.11,1.66-2.33,2.48-3.66,2.48a3.4,3.4,0,0,1-1.31-.32V36.31a5.75,5.75,0,0,0,.89.06,2.16,2.16,0,0,0,1.5-.51,1.9,1.9,0,0,0,.68-1.41,9.46,9.46,0,0,0-.53-2.18L14.44,25h2.1l1.69,5.47a7.5,7.5,0,0,1,.48,2.6A36,36,0,0,0,20.65,25Z"/><path class="cls-2" d="M51.25,34.41h-6.1V21.59H47.2V32.83h4Zm-7.69.31L41.2,33.56a4.53,4.53,0,0,0,.59-.57,7.9,7.9,0,0,0,1.5-5.23q0-6.36-5-6.36A4.73,4.73,0,0,0,34.48,23,7.82,7.82,0,0,0,33,28.22a7.66,7.66,0,0,0,1.33,5A4.56,4.56,0,0,0,38,34.6a5.94,5.94,0,0,0,1.68-.22l3.07,1.78Zm-7.64-2.87a7.92,7.92,0,0,1-.78-4q0-4.84,3-4.84a2.46,2.46,0,0,1,2.25,1.15,7.83,7.83,0,0,1,.78,4q0,4.89-2.94,4.89a2.47,2.47,0,0,1-2.26-1.16m-3.84-1a3.4,3.4,0,0,1-1.2,2.68,4.7,4.7,0,0,1-3.2,1A6.41,6.41,0,0,1,24,33.38l.55-1.1a6.19,6.19,0,0,0,2.75.76,2.9,2.9,0,0,0,1.82-.51,1.76,1.76,0,0,0,.7-1.42c0-.76-.54-1.42-1.51-2s-2.7-1.53-2.7-1.53a3.07,3.07,0,0,1-1.46-2.72,3.22,3.22,0,0,1,1.09-2.52,4.12,4.12,0,0,1,2.82-1,5.84,5.84,0,0,1,3.25.95l-.49,1.1a6.39,6.39,0,0,0-2.47-.53,2.23,2.23,0,0,0-1.52.47,1.61,1.61,0,0,0-.57,1.22c0,.76.54,1.42,1.54,2s2.75,1.55,2.75,1.55a3,3,0,0,1,1.5,2.71"/><path class="cls-1" d="M53.82,17.29a7.15,7.15,0,0,0-3,.44c-.24.09-.61.09-.64.39.13.12.14.32.25.49a3.68,3.68,0,0,0,.81.95c.32.25.65.49,1,.71.6.37,1.28.59,1.87,1,.34.22.68.5,1,.73.16.12.27.32.49.4v-.05c-.11-.14-.14-.34-.25-.49l-.46-.45a7.44,7.44,0,0,0-1.61-1.56c-.5-.35-1.58-.81-1.79-1.38l0,0a7.57,7.57,0,0,0,1.07-.25c.53-.14,1-.11,1.55-.25.25-.06.5-.14.75-.22v-.14c-.28-.28-.48-.65-.78-.91a21,21,0,0,0-2.56-1.91A17,17,0,0,0,49.9,14c-.18-.09-.49-.14-.6-.3a6.17,6.17,0,0,1-.64-1.19c-.44-.85-.88-1.8-1.27-2.7A17.46,17.46,0,0,0,46.6,8a15.67,15.67,0,0,0-6-5.8,7.79,7.79,0,0,0-2-.63l-1.17-.06A6.4,6.4,0,0,1,36.75,1C35.87.41,33.59-.8,32.94.79c-.42,1,.62,2,1,2.51a7,7,0,0,1,.78,1.17c.11.26.14.54.25.82a17.78,17.78,0,0,0,.81,2.07,6.56,6.56,0,0,0,.57,1c.13.18.34.25.39.53A4.63,4.63,0,0,0,36.36,10a6.87,6.87,0,0,0,.45,5.21c.25.39.84,1.24,1.63.91S39,15,39.18,14.2c0-.19,0-.31.11-.44v0c.22.44.44.85.64,1.29a8.6,8.6,0,0,0,2,2.07c.37.28.67.76,1.13.93v0h0c-.09-.14-.23-.2-.35-.31a7.82,7.82,0,0,1-.81-.93A21.11,21.11,0,0,1,40.14,14c-.24-.48-.46-1-.66-1.49-.09-.18-.09-.46-.25-.56A5.88,5.88,0,0,0,38.49,13a8.47,8.47,0,0,0-.44,2.34l-.06,0c-.49-.13-.66-.64-.85-1.07A6.7,6.7,0,0,1,37,10.15c.11-.32.57-1.35.39-1.65S37,8,36.81,7.8a6,6,0,0,1-.55-1c-.38-.87-.56-1.83-1-2.7a9,9,0,0,0-.78-1.19,8.17,8.17,0,0,1-.85-1.21c-.08-.17-.19-.45-.06-.64a.24.24,0,0,1,.21-.2c.2-.17.78.05,1,.14a7.59,7.59,0,0,1,1.53.78c.22.15.45.45.73.52h.33c.49.11,1,0,1.52.17a10.22,10.22,0,0,1,2.23,1.07A13.79,13.79,0,0,1,46,8.85c.18.36.26.68.43,1.05.33.76.73,1.54,1.06,2.28a9.81,9.81,0,0,0,1.1,2.08c.23.32,1.16.49,1.58.66a11.4,11.4,0,0,1,1.07.44c.52.32,1,.69,1.54,1.05.25.19,1,.57,1.07.88M38,3.83a2.65,2.65,0,0,0-.63.08v0h0a6.43,6.43,0,0,0,.5.64c.13.24.23.49.36.74l0,0a.87.87,0,0,0,.32-.78c-.09-.11-.1-.21-.18-.32S38.14,4,38,3.83"/><path class="cls-2" d="M55.3,34.41h.32V32.84h-.48l-.4,1.07-.42-1.07h-.47v1.57h.31V33.22h0l.45,1.19h.23l.45-1.19v1.19Zm-2.59,0h.34v-1.3h.45v-.27H52.25v.27h.46v1.3Z"/></g></g></svg>