<svg xmlns="http://www.w3.org/2000/svg" xmlns:xlink="http://www.w3.org/1999/xlink" viewBox="0 0 55.68 29.29"><defs><style>.cls-1{fill:none;}.cls-2{clip-path:url(#clip-path);}.cls-3{fill:url(#Dégradé_sans_nom_3);}.cls-4{clip-path:url(#clip-path-2);}.cls-5{fill:#777bb3;}.cls-6{fill:#fff;}</style><clipPath id="clip-path" transform="translate(-1.16 -1.67)"><path class="cls-1" d="M1.16,16.31C1.16,24.4,13.62,31,29,31h0c15.38,0,27.84-6.56,27.84-14.65h0C56.84,8.22,44.38,1.67,29,1.67h0C13.62,1.67,1.16,8.22,1.16,16.31"/></clipPath><radialGradient id="Dégradé_sans_nom_3" cx="-346.3" cy="857.99" r="0.08" gradientTransform="matrix(453.82, 0, 0, -453.82, 157174.48, 389380.54)" gradientUnits="userSpaceOnUse"><stop offset="0" stop-color="#aeb2d5"/><stop offset="0.3" stop-color="#aeb2d5"/><stop offset="0.75" stop-color="#484c89"/><stop offset="1" stop-color="#484c89"/></radialGradient><clipPath id="clip-path-2" transform="translate(-1.16 -1.67)"><rect class="cls-1" width="58" height="32.62"/></clipPath></defs><g id="Calque_2" data-name="Calque 2"><g id="Calque_1-2" data-name="Calque 1"><g id="g3438"><g id="g3440"><g class="cls-2"><g id="g3442"><g id="g3448"><g id="g3450"><path id="path3462" class="cls-3" d="M1.16,16.31C1.16,24.4,13.62,31,29,31h0c15.38,0,27.84-6.56,27.84-14.65h0C56.84,8.22,44.38,1.67,29,1.67h0C13.62,1.67,1.16,8.22,1.16,16.31" transform="translate(-1.16 -1.67)"/></g></g></g></g></g><g id="g3464"><g class="cls-4"><g id="g3466"><g id="g3472"><path id="path3474" class="cls-5" d="M29,29.87c14.77,0,26.75-6.07,26.75-13.56S43.77,2.75,29,2.75,2.25,8.82,2.25,16.31,14.23,29.87,29,29.87" transform="translate(-1.16 -1.67)"/></g></g></g></g><g id="g3476"><g class="cls-4"><g id="g3478"><g id="g3484"><path id="path3486" d="M16.29,18A4.44,4.44,0,0,0,19,17.33a3.64,3.64,0,0,0,1.17-2.25A2.41,2.41,0,0,0,19.93,13a3,3,0,0,0-2.2-.57h-2L14.71,18ZM9.94,24.82a.32.32,0,0,1-.24-.11.33.33,0,0,1-.06-.25L12.49,9.78a.3.3,0,0,1,.3-.24h6.15a5.41,5.41,0,0,1,4.27,1.55A4.87,4.87,0,0,1,24,15.42a6.94,6.94,0,0,1-.73,2,7.11,7.11,0,0,1-1.37,1.71,6,6,0,0,1-2.23,1.34,10.31,10.31,0,0,1-3.08.39H14.14l-.71,3.66a.31.31,0,0,1-.3.25Z" transform="translate(-1.16 -1.67)"/></g><g id="g3488"><path id="path3490" class="cls-6" d="M16,12.76h1.7c1.35,0,1.82.29,2,.47A2.24,2.24,0,0,1,19.85,15a3.36,3.36,0,0,1-1.05,2.07,4.18,4.18,0,0,1-2.51.6H15.07Zm2.91-3.53H12.79a.6.6,0,0,0-.59.49L9.34,24.4a.61.61,0,0,0,.6.72h3.19a.62.62,0,0,0,.6-.49l.66-3.41h2.24a10.52,10.52,0,0,0,3.17-.41,6.34,6.34,0,0,0,2.35-1.41,7,7,0,0,0,2.19-3.93,5.16,5.16,0,0,0-.9-4.57,5.68,5.68,0,0,0-4.5-1.67m-4.6,9.07h1.95a4.77,4.77,0,0,0,2.88-.73,3.88,3.88,0,0,0,1.27-2.44,2.62,2.62,0,0,0-.29-2.3,3.24,3.24,0,0,0-2.42-.68h-2.2L14.34,18.3m4.6-8.46a5.09,5.09,0,0,1,4,1.45,4.57,4.57,0,0,1,.77,4.07,6.54,6.54,0,0,1-.71,2A6.27,6.27,0,0,1,21.74,19a5.6,5.6,0,0,1-2.13,1.28,9.91,9.91,0,0,1-3,.38H13.89l-.76,3.9H9.94L12.79,9.84h6.15" transform="translate(-1.16 -1.67)"/></g><g id="g3492"><path id="path3494" d="M31.37,20.91a.3.3,0,0,1-.23-.11.28.28,0,0,1-.06-.25l1.26-6.49a1.62,1.62,0,0,0-.08-1.25c-.11-.11-.43-.3-1.37-.3H28.6L27,20.67a.29.29,0,0,1-.29.24H23.55a.3.3,0,0,1-.3-.36L26.1,5.88a.31.31,0,0,1,.3-.25h3.17a.28.28,0,0,1,.23.11.32.32,0,0,1,.07.25l-.69,3.55h2.46c1.87,0,3.14.33,3.88,1a3.37,3.37,0,0,1,.7,3.3l-1.33,6.83a.29.29,0,0,1-.29.24Z" transform="translate(-1.16 -1.67)"/></g><g id="g3496"><path id="path3498" class="cls-6" d="M29.57,5.33H26.4a.6.6,0,0,0-.59.49L23,20.5a.61.61,0,0,0,.13.5.6.6,0,0,0,.47.22h3.17a.6.6,0,0,0,.59-.49l1.54-7.92h2c.94,0,1.14.2,1.15.21s.13.34,0,1l-1.26,6.5a.61.61,0,0,0,.13.5.58.58,0,0,0,.46.22H34.6a.61.61,0,0,0,.59-.49l1.33-6.83a3.66,3.66,0,0,0-.79-3.58c-.8-.73-2.14-1.09-4.09-1.09h-2.1l.62-3.18a.6.6,0,0,0-.12-.5.62.62,0,0,0-.47-.22m0,.61-.76,3.9h2.83c1.78,0,3,.31,3.68.93a3.08,3.08,0,0,1,.6,3L34.6,20.61H31.37l1.27-6.49c.14-.74.09-1.24-.16-1.51a2.22,2.22,0,0,0-1.59-.41H28.35l-1.63,8.41H23.55L26.4,5.94h3.17" transform="translate(-1.16 -1.67)"/></g><g id="g3500"><path id="path3502" d="M41.24,18a4.49,4.49,0,0,0,2.7-.66,3.68,3.68,0,0,0,1.16-2.25A2.41,2.41,0,0,0,44.88,13a3,3,0,0,0-2.2-.57H40.74L39.66,18Zm-6.35,6.83a.28.28,0,0,1-.23-.11.33.33,0,0,1-.07-.25L37.45,9.78a.29.29,0,0,1,.29-.24h6.15a5.41,5.41,0,0,1,4.27,1.55A4.9,4.9,0,0,1,49,15.42a7.25,7.25,0,0,1-.74,2,7.31,7.31,0,0,1-1.36,1.71,6.09,6.09,0,0,1-2.24,1.34,10.27,10.27,0,0,1-3.08.39H39.09l-.71,3.66a.3.3,0,0,1-.29.25Z" transform="translate(-1.16 -1.67)"/></g><g id="g3504"><path id="path3506" class="cls-6" d="M41,12.76h1.69c1.35,0,1.82.29,2,.47A2.24,2.24,0,0,1,44.8,15a3.31,3.31,0,0,1-1,2.07,4.16,4.16,0,0,1-2.51.6H40Zm2.9-3.53H37.74a.6.6,0,0,0-.59.49L34.3,24.4a.6.6,0,0,0,.12.5.62.62,0,0,0,.47.22h3.2a.61.61,0,0,0,.59-.49l.66-3.41h2.24a10.47,10.47,0,0,0,3.17-.41A6.34,6.34,0,0,0,47.1,19.4a7,7,0,0,0,2.19-3.93,5.13,5.13,0,0,0-.9-4.57,5.67,5.67,0,0,0-4.5-1.67m-4.6,9.07h2a4.73,4.73,0,0,0,2.88-.73,3.89,3.89,0,0,0,1.28-2.44,2.66,2.66,0,0,0-.29-2.3,3.28,3.28,0,0,0-2.43-.68H40.49l-1.2,6.15m4.6-8.46a5.12,5.12,0,0,1,4,1.45,4.6,4.6,0,0,1,.76,4.07,6.28,6.28,0,0,1-2,3.59,5.49,5.49,0,0,1-2.12,1.28,10,10,0,0,1-3,.38H38.84l-.75,3.9h-3.2L37.74,9.84h6.15" transform="translate(-1.16 -1.67)"/></g></g></g></g></g></g></g></svg>