<svg xmlns="http://www.w3.org/2000/svg" viewBox="0 0 55.73 56"><defs><style>.cls-1{fill:#fff;}.cls-2{fill:#1d1d1b;}</style></defs><g id="Calque_2" data-name="Calque 2"><g id="Calque_1-2" data-name="Calque 1"><g id="_5LSYin.tif" data-name="5LSYin.tif"><path class="cls-1" d="M55.73,28A28,28,0,0,0,28.37,0a28,28,0,1,0-.53,56A27.7,27.7,0,0,0,55.73,28Z"/><path class="cls-2" d="M55.73,28A27.87,27.87,0,1,1,0,28.11,28.1,28.1,0,0,1,28.37,0,28,28,0,0,1,55.73,28Zm-1.41,0a26.43,26.43,0,1,0-52.86,0,26.43,26.43,0,1,0,52.86,0Z"/><path class="cls-1" d="M54.32,28.07a26.43,26.43,0,1,1-52.86,0,26.43,26.43,0,1,1,52.86,0ZM13.13,16.67l8.6,25.43c1.34-3,2.05-6.14,3.36-9a13.87,13.87,0,0,0-.31-12.81c-1-2-1.2-4.61-4.58-3.6V14.56c4.53,0,9,0,13.49,0,.29,0,.78.67.78,1a1.33,1.33,0,0,1-.83,1,11.77,11.77,0,0,1-2.46.05c2.89,8.57,5.68,16.85,8.46,25.13h.52c1.23-4.24,2.59-8.44,3.64-12.72a10.52,10.52,0,0,0-1.22-7.8c-.69-1.22-1.46-2.4-2-3.67-1.68-3.65-.7-6.17,2.89-7.67C33-.17,14.51,3.25,8.32,14.58h6.59c.77,0,1.72-.31,1.74,1s-.85,1-1.58,1ZM35.74,50.62,28.31,30.18c-2.52,7.26-4.87,14-7.2,20.76C24.9,52.58,31.84,52.44,35.74,50.62ZM17.33,49.56,6,18.46C.63,29.37,6.09,44.4,17.33,49.56Zm22.58-.83c12.51-6.89,14.33-22.85,9.43-30.91C48,28.59,42.9,38.22,39.91,48.73Z"/><path class="cls-2" d="M13.13,16.67h1.94c.73,0,1.6.19,1.58-1s-1-1-1.74-1H8.32C14.51,3.25,33-.17,43.43,9.92c-3.59,1.5-4.57,4-2.89,7.67.58,1.27,1.35,2.45,2,3.67a10.52,10.52,0,0,1,1.22,7.8c-1,4.28-2.41,8.48-3.64,12.72h-.52c-2.78-8.28-5.57-16.56-8.46-25.13a11.77,11.77,0,0,0,2.46-.05,1.33,1.33,0,0,0,.83-1c0-.37-.49-1-.78-1-4.48-.07-9,0-13.49,0v2.16c3.38-1,3.58,1.57,4.58,3.6a13.87,13.87,0,0,1,.31,12.81c-1.31,2.83-2,5.94-3.36,9Z"/><path class="cls-2" d="M35.74,50.62c-3.9,1.82-10.84,2-14.63.32,2.33-6.74,4.68-13.5,7.2-20.76Z"/><path class="cls-2" d="M17.33,49.56C6.09,44.4.63,29.37,6,18.46Z"/><path class="cls-2" d="M39.91,48.73c3-10.51,8.06-20.14,9.43-30.91C54.24,25.88,52.42,41.84,39.91,48.73Z"/></g></g></g></svg>