<?xml version="1.0" encoding="utf-8"?>
<!-- Generator: Adobe Illustrator 22.0.1, SVG Export Plug-In . SVG Version: 6.00 Build 0)  -->
<svg xmlns="http://www.w3.org/2000/svg" xmlns:xlink="http://www.w3.org/1999/xlink" version="1.1" id="Layer_1" x="0px" y="0px" viewBox="0 0 256 256" style="enable-background:new 0 0 256 256;" xml:space="preserve" width="512" height="512">
<style type="text/css">
	.st0{fill:#3A312A;}
	.st1{fill:#D7E057;}
	.st2{fill:#F16C7A;}
	.st3{fill:#FCE8CB;}
	.st4{fill:#87796F;}
	.st5{fill:#8AC6DD;}
	.st6{fill:#CE4E61;}
	.st7{fill:#6CA8BF;}
	.st8{fill:#B9C239;}
	.st9{fill:#DECAAD;}
	.st10{fill:#695B51;}
	.st11{fill-rule:evenodd;clip-rule:evenodd;fill:#FCE8CB;}
	.st12{fill:#F5978A;}
	.st13{fill:#68A8BC;}
	.st14{fill:#B9BC39;}
	.st15{fill:#6B5B51;}
	.st16{fill:#D34E5C;}
	.st17{fill-rule:evenodd;clip-rule:evenodd;fill:#87796F;}
	.st18{fill-rule:evenodd;clip-rule:evenodd;fill:#F16C7A;}
</style>
<g>
	<g>
		<g>
			<rect x="116.026" y="195.64" class="st4" width="23.548" height="26.323"/>
		</g>
	</g>
	<g>
		<g>
			<path class="st0" d="M139.574,194.14h-23.549c-0.828,0-1.5,0.671-1.5,1.5v26.323c0,0.829,0.672,1.5,1.5,1.5h23.549     c0.828,0,1.5-0.671,1.5-1.5V195.64C141.074,194.811,140.402,194.14,139.574,194.14z M138.074,220.462h-20.549V197.14h20.549     V220.462z"/>
		</g>
	</g>
	<g>
		<g>
			<path class="st4" d="M145.355,221.963h-35.109c-9.632,0-17.44,7.808-17.44,17.44h69.99     C162.795,229.771,154.987,221.963,145.355,221.963z"/>
		</g>
	</g>
	<g>
		<g>
			<path class="st0" d="M145.354,220.462h-35.109c-10.443,0-18.939,8.497-18.939,18.94c0,0.829,0.672,1.5,1.5,1.5h69.989     c0.828,0,1.5-0.671,1.5-1.5C164.295,228.959,155.798,220.462,145.354,220.462z M94.376,237.903     c0.758-8.089,7.586-14.44,15.869-14.44h35.109c8.283,0,15.112,6.352,15.87,14.44H94.376z"/>
		</g>
	</g>
	<g>
		<g>
			<path class="st4" d="M224.521,16.522H31.079c-10.095,0-18.279,8.184-18.279,18.279V177.36c0,10.095,8.184,18.279,18.279,18.279     h193.441c10.095,0,18.279-8.184,18.279-18.279V34.802C242.8,24.706,234.616,16.522,224.521,16.522z"/>
		</g>
	</g>
	<g>
		<g>
			<path class="st0" d="M224.521,15.022h-46.585c-0.828,0-1.5,0.671-1.5,1.5c0,0.829,0.672,1.5,1.5,1.5h46.585     c9.252,0,16.779,7.527,16.779,16.779V177.36c0,9.252-7.527,16.779-16.779,16.779H31.079c-9.252,0-16.779-7.527-16.779-16.779     V34.802c0-9.252,7.527-16.779,16.779-16.779h132.584c0.828,0,1.5-0.671,1.5-1.5c0-0.829-0.672-1.5-1.5-1.5H31.079     c-10.906,0-19.779,8.873-19.779,19.779V177.36c0,10.906,8.873,19.779,19.779,19.779h193.441c10.906,0,19.779-8.873,19.779-19.779     V34.802C244.3,23.896,235.427,15.022,224.521,15.022z"/>
		</g>
	</g>
	<g>
		<g>
			<path class="st5" d="M216.35,30.046H39.25c-6.9,0-12.49,5.6-12.49,12.5v127.07c0,1.41,0.23,2.77,0.67,4.04     c1.67,4.92,6.33,8.46,11.82,8.46h177.1c6.9,0,12.49-5.6,12.49-12.5V42.546C228.84,35.646,223.25,30.046,216.35,30.046z"/>
		</g>
	</g>
	<g>
		<g>
			<path class="st0" d="M216.35,28.546H39.25c-7.714,0-13.99,6.28-13.99,14v33.479c0,0.829,0.672,1.5,1.5,1.5s1.5-0.671,1.5-1.5     V42.546c0-6.065,4.931-11,10.99-11h177.1c6.06,0,10.99,4.935,10.99,11v127.07c0,6.065-4.931,11-10.99,11H39.25     c-4.71,0-8.889-2.991-10.403-7.451c-0.39-1.126-0.587-2.32-0.587-3.549V90.9c0-0.829-0.672-1.5-1.5-1.5s-1.5,0.671-1.5,1.5     v78.716c0,1.563,0.253,3.088,0.749,4.521c1.925,5.669,7.245,9.479,13.241,9.479h177.1c7.714,0,13.99-6.28,13.99-14V42.546     C230.34,34.826,224.063,28.546,216.35,28.546z"/>
		</g>
	</g>
	<g>
		<g>
			<path class="st7" d="M216.34,31.543h-14.99c6.06,0,10.99,4.94,10.99,11v127.07c0,6.07-4.93,11-10.99,11h15     c6.06,0,10.99-4.93,10.99-11V42.543C227.34,36.493,222.39,31.543,216.34,31.543z"/>
		</g>
	</g>
	<g>
		<g>
			<rect x="129" y="197.142" class="st10" width="9.07" height="23.32"/>
		</g>
	</g>
	<g>
		<g>
			<path class="st10" d="M145.35,223.463h-9.07c8.29,0,15.12,6.35,15.87,14.44h9.07C160.47,229.813,153.64,223.463,145.35,223.463z"/>
		</g>
	</g>
	<g>
		<g>
			<path class="st1" d="M122.699,123.522v24.397c6.693-0.051,12.101-5.493,12.101-12.198     C134.8,129.015,129.392,123.574,122.699,123.522z"/>
		</g>
	</g>
	<g>
		<g>
			<path class="st0" d="M122.711,122.022c-0.404-0.029-0.784,0.153-1.068,0.435c-0.284,0.282-0.443,0.665-0.443,1.065v24.397     c0,0.4,0.159,0.783,0.443,1.065c0.281,0.279,0.661,0.435,1.057,0.435h0.012c7.493-0.058,13.589-6.203,13.589-13.699     C136.3,128.225,130.204,122.08,122.711,122.022z M124.199,146.3v-21.159c5.138,0.776,9.101,5.239,9.101,10.579     C133.3,141.061,129.337,145.524,124.199,146.3z"/>
		</g>
	</g>
	<g>
		<g>
			<path class="st2" d="M118.402,103.582c-2.373,0-4.297,1.924-4.297,4.297v55.683c0,2.373,1.924,4.297,4.297,4.297     c2.373,0,4.297-1.924,4.297-4.297v-55.683C122.699,105.506,120.775,103.582,118.402,103.582z"/>
		</g>
	</g>
	<g>
		<g>
			<path class="st0" d="M118.402,102.082c-3.196,0-5.797,2.601-5.797,5.797v55.683c0,3.196,2.601,5.797,5.797,5.797     s5.797-2.601,5.797-5.797v-55.683C124.199,104.683,121.599,102.082,118.402,102.082z M121.199,163.562     c0,1.542-1.255,2.797-2.797,2.797s-2.797-1.255-2.797-2.797v-55.683c0-1.542,1.255-2.797,2.797-2.797s2.797,1.255,2.797,2.797     V163.562z"/>
		</g>
	</g>
	<g>
		<g>
			<polygon class="st2" points="92.371,117.845 85.732,120.454 73.066,125.431 73.066,146.006 114.105,162.137 114.105,109.304         "/>
		</g>
	</g>
	<g>
		<g>
			<path class="st0" d="M114.95,108.064c-0.411-0.28-0.932-0.338-1.394-0.156l-28.374,11.15l-12.665,4.977     c-0.574,0.226-0.951,0.779-0.951,1.396v20.574c0,0.617,0.377,1.17,0.951,1.396l41.039,16.131c0.178,0.07,0.363,0.104,0.549,0.104     c0.297,0,0.592-0.088,0.845-0.26c0.41-0.28,0.655-0.744,0.655-1.24v-52.833C115.605,108.808,115.36,108.344,114.95,108.064z      M112.605,159.936l-38.039-14.952v-18.53l38.039-14.949V159.936z"/>
		</g>
	</g>
	<g>
		<g>
			<path class="st2" d="M63.75,125.431c-3.838,0-6.95,3.112-6.95,6.95v6.674c0,3.838,3.111,6.95,6.95,6.95h9.317v-20.573H63.75z"/>
		</g>
	</g>
	<g>
		<g>
			<path class="st0" d="M73.066,123.932H63.75c-4.659,0-8.45,3.791-8.45,8.45v6.674c0,4.659,3.791,8.45,8.45,8.45h9.316     c0.828,0,1.5-0.671,1.5-1.5v-20.573C74.566,124.603,73.895,123.932,73.066,123.932z M71.566,144.505H63.75     c-3.005,0-5.45-2.445-5.45-5.45v-6.674c0-3.005,2.445-5.45,5.45-5.45h7.816V144.505z"/>
		</g>
	</g>
	<g>
		<g>
			<path class="st4" d="M62.437,146.003v9.813c0.091-0.01,0.182-0.014,0.273-0.014h10.085c0.091,0,0.182,0.003,0.269,0.01v-9.809     H62.437z"/>
		</g>
	</g>
	<g>
		<g>
			<path class="st0" d="M73.065,144.503H62.438c-0.828,0-1.5,0.671-1.5,1.5v9.813c0,0.429,0.231,0.835,0.552,1.119     c0.32,0.285,0.795,0.415,1.221,0.367h10.086c0.049,0,0.098,0.001,0.145,0.005c0.042,0.003,0.084,0.005,0.125,0.005     c0.375,0,0.737-0.141,1.016-0.396c0.309-0.284,0.484-0.685,0.484-1.104v-9.809C74.565,145.175,73.894,144.503,73.065,144.503z      M71.565,154.302h-7.628v-6.798h7.628V154.302z"/>
		</g>
	</g>
	<g>
		<g>
			<path class="st4" d="M72.794,155.801H62.709c-1.809,0-3.275,1.466-3.275,3.275v8.886h16.635v-8.886     C76.069,157.267,74.603,155.801,72.794,155.801z"/>
		</g>
	</g>
	<g>
		<g>
			<path class="st0" d="M72.794,154.301H62.709c-2.633,0-4.775,2.142-4.775,4.775v8.886c0,0.829,0.672,1.5,1.5,1.5h16.636     c0.828,0,1.5-0.671,1.5-1.5v-8.886C77.569,156.443,75.427,154.301,72.794,154.301z M74.569,166.462H60.934v-7.386     c0-0.979,0.797-1.775,1.775-1.775h10.085c0.979,0,1.775,0.796,1.775,1.775V166.462z"/>
		</g>
	</g>
	<g>
		<g>
			<path class="st4" d="M101.323,54.12c1.865,1.987,3.185,4.489,3.726,7.27l6.477-7.773L101.323,54.12z"/>
		</g>
	</g>
	<g>
		<g>
			<path class="st0" d="M112.867,52.947c-0.265-0.533-0.806-0.873-1.416-0.829l-10.202,0.503c-0.584,0.029-1.098,0.394-1.316,0.936     c-0.219,0.543-0.104,1.162,0.297,1.588c1.714,1.826,2.871,4.084,3.348,6.531c0.111,0.568,0.539,1.022,1.1,1.166     c0.124,0.032,0.249,0.047,0.373,0.047c0.438,0,0.863-0.193,1.152-0.54l6.476-7.773C113.059,54.119,113.134,53.479,112.867,52.947     z M105.696,58.27c-0.383-0.975-0.86-1.91-1.425-2.794l3.913-0.193L105.696,58.27z"/>
		</g>
	</g>
	<g>
		<g>
			<path class="st3" d="M105.326,64.231c0-8.156-6.612-14.768-14.768-14.768c-8.156,0-14.769,6.612-14.769,14.768     c0,0.772,0.077,1.525,0.191,2.265c-0.556,0.136-1.109,0.288-1.654,0.477c-0.468-0.301-0.934-0.613-1.396-0.939     c-10.711-7.555-15.45-19.271-19.394-13.679c-2.78,3.941-0.87,10.398,4.247,16.512c-6.491-3.741-10.685-6.907-12.129-2.459     c-1.534,4.728,2.48,10.534,9.569,14.909c-6.679-0.602-11.137-1.254-10.582,3.081c0.541,4.22,5.094,7.419,11.585,8.836     c-0.421,1.94-12.992,7.414-11.632,10.743c2.146,5.253,15.553,6.865,25.34,4.451c8.574-1.526,18.679-6.968,23.193-11.482     c5.278-5.278,6.619-12.995,4.036-19.52C101.999,74.999,105.326,70.01,105.326,64.231z"/>
		</g>
	</g>
	<g>
		<g>
			<path class="st0" d="M106.826,64.231c0-8.971-7.298-16.269-16.269-16.269S74.289,55.26,74.289,64.231     c0,0.305,0.011,0.618,0.032,0.941c-0.176-0.12-0.351-0.241-0.526-0.364c-4.099-2.891-7.358-6.481-9.977-9.366     c-3.271-3.602-5.642-6.211-8.24-6.043c-1.244,0.077-2.343,0.78-3.268,2.091c-2.278,3.231-1.999,7.864,0.583,12.824     c-2.468-1.305-4.455-1.979-6.163-1.333c-1.165,0.441-2.007,1.438-2.502,2.964c-1.374,4.232,0.822,9.137,5.82,13.459     c-2.674-0.103-4.668,0.163-5.897,1.437c-0.865,0.896-1.2,2.158-0.997,3.748c0.528,4.125,4.235,7.532,10.09,9.401     c-0.714,0.492-1.547,1.031-2.255,1.488c-4.468,2.887-9.088,5.872-7.782,9.066c1.771,4.336,9.306,6.495,17.23,6.494     c3.316,0,6.702-0.378,9.761-1.134c9.208-1.639,19.429-7.336,23.99-11.898c5.229-5.228,7.052-12.907,4.816-19.885     C103.861,75.176,106.826,69.968,106.826,64.231z M96.491,76.085c-0.694,0.349-1.008,1.17-0.722,1.893     c2.447,6.182,0.994,13.211-3.702,17.907c-4.142,4.142-13.882,9.551-22.491,11.086c-9.587,2.365-21.933,0.5-23.583-3.523     c0.013-1.179,4.646-4.173,6.624-5.451c3.316-2.143,4.794-3.145,5.076-4.445c0.176-0.809-0.337-1.607-1.146-1.783     c-6.087-1.329-9.981-4.156-10.417-7.562c-0.057-0.442-0.072-1.023,0.179-1.284c0.389-0.402,1.388-0.54,2.693-0.54     c1.44,0,3.256,0.167,5.038,0.331l1.048,0.096c0.704,0.059,1.339-0.36,1.558-1.02c0.22-0.661-0.043-1.385-0.635-1.75     c-6.684-4.125-10.188-9.294-8.93-13.17c0.138-0.424,0.373-0.957,0.711-1.085c1.091-0.417,4.136,1.377,7.074,3.111     c0.691,0.408,1.414,0.834,2.167,1.268c0.63,0.363,1.431,0.222,1.897-0.335c0.468-0.557,0.469-1.369,0.002-1.927     c-4.79-5.722-6.427-11.486-4.172-14.684c0.257-0.365,0.64-0.804,1-0.826c1.159-0.07,3.542,2.539,5.835,5.065     c2.718,2.994,6.1,6.72,10.469,9.801c0.479,0.339,0.964,0.663,1.449,0.976c0.389,0.249,0.87,0.306,1.304,0.155     c0.439-0.153,0.922-0.292,1.518-0.437c0.756-0.185,1.246-0.917,1.127-1.686c-0.118-0.768-0.174-1.415-0.174-2.036     c0-7.316,5.952-13.269,13.269-13.269s13.269,5.952,13.269,13.269C103.826,69.272,101.016,73.815,96.491,76.085z"/>
		</g>
	</g>
	<g>
		<g>
			<path class="st0" d="M92.246,54.363c-1.328,0-2.404,1.076-2.404,2.404c0,1.328,1.076,2.404,2.404,2.404s2.404-1.076,2.404-2.404     C94.65,55.439,93.574,54.363,92.246,54.363z"/>
		</g>
	</g>
	<g>
		<g>
			<path class="st1" d="M163.352,47.77c-16.742,0-30.314,12.047-30.314,26.908c0,6.913,2.939,13.215,7.766,17.981l-4.619,11.641     c-0.456,1.148,0.635,2.306,1.808,1.92l17.141-5.642c2.615,0.653,5.369,1.009,8.219,1.009c11.359,0,21.252-5.549,26.444-13.756     c1.498-2.349,2.605-4.918,3.231-7.64c0.417-1.779,0.639-3.623,0.639-5.512C193.667,59.817,180.094,47.77,163.352,47.77z"/>
		</g>
	</g>
	<g>
		<g>
			<path class="st0" d="M163.353,46.269c-17.543,0-31.814,12.744-31.814,28.409c0,6.737,2.66,13.21,7.512,18.333l-4.259,10.734     c-0.429,1.078-0.201,2.272,0.595,3.117c0.572,0.607,1.343,0.933,2.14,0.933c0.312,0,0.627-0.049,0.937-0.151l16.734-5.508     c2.667,0.631,5.408,0.951,8.156,0.951c11.453,0,22.071-5.538,27.709-14.45c1.621-2.542,2.774-5.27,3.427-8.108     c0.45-1.918,0.679-3.886,0.679-5.851C195.167,59.014,180.896,46.269,163.353,46.269z M191.567,79.847     c-0.001,0.002-0.001,0.005-0.002,0.007c-0.575,2.504-1.597,4.916-3.036,7.174c-5.096,8.055-14.743,13.058-25.177,13.058     c-2.649,0-5.292-0.325-7.855-0.964c-0.272-0.069-0.563-0.059-0.832,0.03l-17.086,5.7l4.619-11.641     c0.222-0.56,0.088-1.198-0.341-1.621c-4.72-4.661-7.319-10.668-7.319-16.913c0-14.01,12.926-25.409,28.814-25.409     s28.814,11.398,28.814,25.409C192.167,76.414,191.965,78.152,191.567,79.847z"/>
		</g>
	</g>
	<g>
		<g>
			<circle class="st3" cx="146.719" cy="74.927" r="4.815"/>
		</g>
	</g>
	<g>
		<g>
			<path class="st0" d="M146.72,68.612c-3.482,0-6.315,2.832-6.315,6.314c0,3.482,2.833,6.315,6.315,6.315     c3.481,0,6.314-2.833,6.314-6.315C153.034,71.445,150.201,68.612,146.72,68.612z M146.72,78.242     c-1.828,0-3.315-1.487-3.315-3.315c0-1.828,1.487-3.314,3.315-3.314c1.827,0,3.314,1.487,3.314,3.314     C150.034,76.754,148.547,78.242,146.72,78.242z"/>
		</g>
	</g>
	<g>
		<g>
			<path class="st3" d="M163.352,70.112c-2.659,0-4.815,2.156-4.815,4.815c0,2.659,2.156,4.815,4.815,4.815s4.815-2.156,4.815-4.815     C168.167,72.268,166.011,70.112,163.352,70.112z"/>
		</g>
	</g>
	<g>
		<g>
			<path class="st0" d="M163.353,68.612c-3.482,0-6.315,2.832-6.315,6.314c0,3.482,2.833,6.315,6.315,6.315     c3.481,0,6.314-2.833,6.314-6.315C169.667,71.445,166.834,68.612,163.353,68.612z M163.353,78.242     c-1.828,0-3.315-1.487-3.315-3.315c0-1.828,1.487-3.314,3.315-3.314c1.827,0,3.314,1.487,3.314,3.314     C166.667,76.754,165.18,78.242,163.353,78.242z"/>
		</g>
	</g>
	<g>
		<g>
			<path class="st3" d="M179.985,70.112c-2.659,0-4.815,2.156-4.815,4.815c0,2.659,2.156,4.815,4.815,4.815s4.815-2.156,4.815-4.815     C184.8,72.268,182.644,70.112,179.985,70.112z"/>
		</g>
	</g>
	<g>
		<g>
			<path class="st0" d="M179.985,68.612c-3.482,0-6.315,2.832-6.315,6.314c0,3.482,2.833,6.315,6.315,6.315     c3.481,0,6.314-2.833,6.314-6.315C186.3,71.445,183.467,68.612,179.985,68.612z M179.985,78.242     c-1.828,0-3.315-1.487-3.315-3.315c0-1.828,1.487-3.314,3.315-3.314c1.827,0,3.314,1.487,3.314,3.314     C183.3,76.754,181.813,78.242,179.985,78.242z"/>
		</g>
	</g>
	<g>
		<g>
			<path class="st4" d="M190.782,113.305l-11.688,5.889l-3.9,1.965l-12.609,6.354c1.37,1.436,2.328,3.267,2.676,5.31l28.131-14.173     C192.039,117.196,191.106,115.353,190.782,113.305z"/>
		</g>
	</g>
	<g>
		<g>
			<path class="st0" d="M194.49,117.628c-1.188-1.276-1.957-2.852-2.227-4.558c-0.074-0.473-0.371-0.882-0.797-1.101     c-0.427-0.219-0.933-0.22-1.359-0.004l-15.588,7.854c0,0,0,0,0,0l-12.609,6.354c-0.425,0.214-0.723,0.616-0.804,1.085     c-0.08,0.468,0.065,0.947,0.394,1.291c1.203,1.26,1.992,2.825,2.282,4.525c0.08,0.469,0.377,0.873,0.802,1.087     c0.213,0.107,0.445,0.161,0.677,0.161s0.463-0.054,0.675-0.16l28.132-14.172c0.422-0.212,0.719-0.611,0.802-1.075     C194.952,118.45,194.813,117.974,194.49,117.628z M166.24,130.649c-0.328-0.929-0.773-1.812-1.326-2.63l24.869-12.532     c0.318,0.933,0.755,1.821,1.3,2.646L166.24,130.649z"/>
		</g>
	</g>
	<g>
		<g>
			<path class="st4" d="M182.226,144.666l-3.917-1.943l-13.036-6.466c-0.339,2.045-1.284,3.886-2.646,5.328l28.167,13.973     c0.336-2.045,1.281-3.886,2.643-5.331L182.226,144.666z"/>
		</g>
	</g>
	<g>
		<g>
			<path class="st0" d="M194.913,149.962c-0.084-0.468-0.385-0.868-0.81-1.079l-28.163-13.97c-0.427-0.211-0.926-0.208-1.351,0.008     c-0.423,0.217-0.719,0.621-0.796,1.09c-0.283,1.708-1.063,3.278-2.258,4.543c-0.326,0.346-0.47,0.826-0.386,1.293     c0.084,0.468,0.384,0.869,0.81,1.08l28.167,13.973c0.211,0.104,0.438,0.156,0.667,0.156c0.234,0,0.47-0.055,0.685-0.165     c0.423-0.217,0.719-0.623,0.796-1.092c0.28-1.706,1.06-3.277,2.254-4.545C194.854,150.91,194.997,150.43,194.913,149.962z      M189.801,153.391l-24.848-12.327c0.548-0.822,0.988-1.708,1.312-2.641l11.377,5.644l13.47,6.681     C190.563,151.571,190.123,152.458,189.801,153.391z"/>
		</g>
	</g>
	<g>
		<g>
			
				<ellipse transform="matrix(0.994 -0.1091 0.1091 0.994 -10.9876 22.5862)" class="st2" cx="200.881" cy="111.689" rx="10.227" ry="10.227"/>
		</g>
	</g>
	<g>
		<g>
			<path class="st0" d="M200.881,99.962c-6.466,0-11.727,5.261-11.727,11.727c0,6.466,5.261,11.726,11.727,11.726     s11.727-5.261,11.727-11.726C212.607,105.223,207.347,99.962,200.881,99.962z M200.881,120.416c-4.812,0-8.727-3.914-8.727-8.726     c0-4.812,3.915-8.727,8.727-8.727s8.727,3.915,8.727,8.727C209.607,116.501,205.692,120.416,200.881,120.416z"/>
		</g>
	</g>
	<g>
		<g>
			
				<ellipse transform="matrix(0.9903 -0.1387 0.1387 0.9903 -19.8677 29.3822)" class="st3" cx="200.881" cy="157.24" rx="10.227" ry="10.227"/>
		</g>
	</g>
	<g>
		<g>
			<path class="st0" d="M200.881,145.514c-6.466,0-11.727,5.261-11.727,11.727c0,6.466,5.261,11.727,11.727,11.727     s11.727-5.261,11.727-11.727C212.607,150.774,207.347,145.514,200.881,145.514z M200.881,165.967     c-4.812,0-8.727-3.915-8.727-8.727s3.915-8.727,8.727-8.727s8.727,3.914,8.727,8.727S205.692,165.967,200.881,165.967z"/>
		</g>
	</g>
	<g>
		<g>
			<circle class="st1" cx="155.185" cy="134.571" r="10.227"/>
		</g>
	</g>
	<g>
		<g>
			<path class="st0" d="M155.185,122.844c-6.466,0-11.727,5.261-11.727,11.727c0,6.466,5.261,11.727,11.727,11.727     s11.727-5.261,11.727-11.727C166.911,128.105,161.65,122.844,155.185,122.844z M155.185,143.298     c-4.812,0-8.727-3.915-8.727-8.727s3.915-8.727,8.727-8.727s8.727,3.915,8.727,8.727S159.996,143.298,155.185,143.298z"/>
		</g>
	</g>
</g>
</svg>
